<svg xmlns="http://www.w3.org/2000/svg" width="310" height="257" fill="none" viewBox="0 0 310 257">
  <path stroke="#fff" stroke-width=".3" d="M208.65 250.047c-33.144 3.918-64.266-17.716-84.151-44.601-17.584-23.774-11.941-54.129-10.741-83.698 1.538-37.88-14.214-87.438 18.461-106.502 32.69-19.072 68.304 18.384 101.555 36.481 25.886 14.09 55.726 25.726 64.524 53.909 8.866 28.399-6.456 56.624-22.135 81.88-17.033 27.439-35.498 58.746-67.513 62.531zM50.917 122.529c13.137-.411 27.945-2.844 34.722-14.132 6.53-10.876.15-24.162-4.683-35.9-4.067-9.877-9.729-19.368-19.665-23.235-9.843-3.83-20.2-.337-29.84 3.972-11.588 5.18-25.658 9.8-28.635 22.167-3.13 13.002 5.3 25.773 14.845 35.125 8.866 8.686 20.868 12.391 33.256 12.003zM96.857 20.18c-1.242-5.06-4.235-9.827-8.46-12.184-4.11-2.295-8.571-.976-12.73.357-4.177 1.337-8.976 2.622-10.613 7.121-1.603 4.406.91 9.505 2.901 14.07 1.703 3.905 4.235 6.995 7.395 9.544 3.861 3.113 8.032 7.622 12.342 6.371 4.335-1.258 5.278-7.34 6.958-11.972 1.552-4.28 3.36-8.607 2.207-13.307z" clip-rule="evenodd"/>
  <path stroke="#fff" stroke-width=".3" d="M198.155 208.683c1.43 8.756 8.515 16.656 20.648 20.039 11.807 3.292 26.482.095 40.216-3.069 13.789-3.177 29.509-6.378 36.858-14.689 7.195-8.137 1.783-16.72-2.245-24.454-3.445-6.614-9.898-11.623-18.591-15.548-10.622-4.796-21.535-12.012-35.702-8.964-14.248 3.065-20.189 14.055-27.738 22.611-6.973 7.905-14.774 15.941-13.446 24.074z" clip-rule="evenodd"/>
</svg>
