<svg viewBox="0 0 84.5 115.8" id="download">
<path class="st0" d="M84.5,112.2c0,2-1.6,3.6-3.6,3.6H3.6c-2,0-3.6-1.6-3.6-3.6V3.6C0,1.6,1.6,0,3.6,0h54.3c1.2,0,2.3,0.5,3.1,1.4 l21.8,25.3c1.1,1.3,1.7,3,1.8,4.7V112.2z"/>
<path class="st1" d="M4.3,57.8c0-14.5,0-29,0-43.5C4.4,6.5,7,3.9,14.9,3.8c10.8,0,21.7,0.1,32.5-0.1c3.6-0.1,5.1,1,5,4.8 c-0.2,6-0.1,12,0,18c0.1,6.3,3,9.1,9.3,9.2c4.8,0.1,9.7,0.1,14.5,0c2.9-0.1,4.2,0.9,4.2,4c-0.1,21.2,0,42.3-0.1,63.5 c0,5.4-3.1,8.4-8.5,8.5c-19.7,0.1-39.3,0.1-59,0c-5.7,0-8.4-3.3-8.5-9.5C4.3,87.4,4.3,72.6,4.3,57.8z"/>
<path class="st1" d="M57.7,5.5l22.4,26.1c-7.6,0-14.1,0.1-20.6-0.1c-2-0.1-3.1-1.9-3.1-4c-0.1-7.1,0-15.3,0-22.4 C56.8,4.9,57.5,5.3,57.7,5.5z"/>
<path class="st0" d="M42.3,96.4c-1.2,0-2.2-1-2.2-2.2v-46c0-1.2,1-2.2,2.2-2.2s2.2,1,2.2,2.2v46C44.6,95.4,43.6,96.4,42.3,96.4z"/>
<path class="st0" d="M25.4,80.9c-0.8-0.9-0.8-2.2,0.1-3.1l0.1-0.1c0.9-0.8,2.2-0.8,3,0.1l12.2,13.1c0.7,0.8,2,0.9,2.8,0.1 c0,0,0.1-0.1,0.1-0.1L56,77.8c0.8-0.8,2.1-0.9,3-0.1l0.1,0.1c0.9,0.8,0.9,2.2,0.1,3.1L43.8,97.5c-0.7,0.8-2,0.9-2.8,0.1 c0,0-0.1-0.1-0.1-0.1L25.4,80.9z"/>
</svg>
