<svg xmlns="http://www.w3.org/2000/svg" width="33" height="32" fill="none" viewBox="0 0 33 32">
  <path stroke="#142636" stroke-linejoin="round" stroke-width="2" d="M15.547 2.493c.296-.929 1.61-.929 1.906 0l2.838 8.915a1 1 0 00.953.697h9.228c.964 0 1.37 1.23.596 1.803l-7.5 5.562a1 1 0 00-.358 1.106l2.857 8.972c.294.925-.769 1.685-1.549 1.107l-7.422-5.504a1 1 0 00-1.192 0l-7.422 5.504c-.78.578-1.843-.182-1.549-1.107l2.857-8.972a1 1 0 00-.358-1.107l-7.5-5.56c-.774-.575-.368-1.804.596-1.804h9.228a1 1 0 00.953-.697l2.838-8.915z"/>
</svg>
