<svg width="15px" height="16px" viewBox="0 0 15 16" version="1.1" xmlns="http://www.w3.org/2000/svg" xmlns:xlink="http://www.w3.org/1999/xlink">
    <g id="Desktop" stroke="none" stroke-width="1" fill="none" fill-rule="evenodd" opacity="0.5">
        <g id="Manage-Items-1" transform="translate(-489.000000, -131.000000)" fill="#000000" fill-rule="nonzero">
            <g id="edit" transform="translate(489.000000, 131.000000)">
                <path d="M0.229254743,11.7566151 L0.00115798992,14.8192971 C-0.00788549367,14.9438462 0.0363270928,15.0663534 0.123747434,15.1541503 C0.203129123,15.2348009 0.310646095,15.2797203 0.421177561,15.2797203 C0.432230708,15.2797203 0.442279023,15.2797203 0.453332169,15.2786994 L3.46983636,15.0469565 C3.57031951,15.0398102 3.66477368,14.9948909 3.73611671,14.9224074 L14.9148673,3.56189912 C15.0796596,3.3944725 15.0796596,3.1239356 14.9148673,2.95650898 L12.1284695,0.12556996 C11.9636771,-0.0418566534 11.6973968,-0.0418566534 11.5326044,0.12556996 L0.350839355,11.4860782 C0.279496318,11.5585617 0.236288563,11.6545257 0.229254743,11.7566151 Z M1.05723591,11.97917 L11.8300345,1.03416561 L14.0205672,3.2597145 L3.24877343,14.2047189 L0.877371067,14.386438 L1.05723591,11.97917 Z"
                      id="Shape"/>
            </g>
        </g>
    </g>
</svg>
