<?xml version="1.0" encoding="utf-8"?>
<!-- Generator: Adobe Illustrator 15.0.2, SVG Export Plug-In . SVG Version: 6.00 Build 0)  -->
<!DOCTYPE svg PUBLIC "-//W3C//DTD SVG 1.1//EN" "http://www.w3.org/Graphics/SVG/1.1/DTD/svg11.dtd">
<svg version="1.1" id="Livello_1" xmlns="http://www.w3.org/2000/svg" xmlns:xlink="http://www.w3.org/1999/xlink" x="0px" y="0px"
	 width="855px" height="260px" viewBox="0 0 855 260" enable-background="new 0 0 855 260" xml:space="preserve">
<g>
	<g>
		<defs>
			<rect id="SVGID_1_" x="0.833" y="2.162" width="853.333" height="255.676"/>
		</defs>
		<clipPath id="SVGID_2_">
			<use xlink:href="#SVGID_1_"  overflow="visible"/>
		</clipPath>
		<g clip-path="url(#SVGID_2_)">
			<defs>
				<rect id="SVGID_3_" x="0.833" y="2.162" width="853.333" height="255.676"/>
			</defs>
			<clipPath id="SVGID_4_">
				<use xlink:href="#SVGID_3_"  overflow="visible"/>
			</clipPath>
			<g clip-path="url(#SVGID_4_)">
				<g>
					<defs>
						<rect id="SVGID_5_" x="-2.561" y="230.916" width="737.327" height="27.299"/>
					</defs>
					<clipPath id="SVGID_6_">
						<use xlink:href="#SVGID_5_"  overflow="visible"/>
					</clipPath>
					<path clip-path="url(#SVGID_6_)" fill="#FFFFFF" d="M722.857,257.803v-9.748l8.514-14.465h-3.295l-6.66,11.404h-0.139
						l-6.385-11.404h-3.57l8.377,14.711v9.502H722.857z M665.32,245.725c0,1.746,0.275,3.369,0.824,4.865
						c0.549,1.498,1.326,2.785,2.334,3.863s2.203,1.912,3.588,2.5c1.385,0.59,2.889,0.885,4.514,0.885
						c1.352,0,2.598-0.189,3.742-0.566s2.158-0.906,3.039-1.594c0.881-0.686,1.602-1.508,2.162-2.469
						c0.562-0.961,0.967-2.023,1.219-3.189h-3.26c-0.229,0.787-0.533,1.486-0.91,2.094c-0.379,0.607-0.848,1.113-1.408,1.52
						s-1.225,0.715-1.99,0.928c-0.768,0.215-1.633,0.322-2.594,0.322c-1.166,0-2.236-0.225-3.209-0.676
						c-0.973-0.449-1.814-1.092-2.523-1.924c-0.709-0.834-1.258-1.812-1.648-2.939c-0.389-1.125-0.584-2.342-0.584-3.648
						c0-1.326,0.195-2.559,0.584-3.695c0.391-1.139,0.945-2.117,1.666-2.939c0.721-0.82,1.578-1.451,2.574-1.891
						s2.088-0.658,3.279-0.658c0.893,0,1.711,0.107,2.455,0.32c0.742,0.215,1.395,0.523,1.957,0.93
						c0.561,0.404,1.033,0.912,1.424,1.52c0.389,0.607,0.699,1.305,0.928,2.094h3.26c-0.252-1.166-0.65-2.23-1.201-3.191
						c-0.549-0.959-1.254-1.781-2.111-2.469c-0.857-0.684-1.854-1.217-2.986-1.594s-2.375-0.566-3.725-0.566
						c-1.672,0-3.205,0.303-4.602,0.906c-1.395,0.604-2.604,1.453-3.621,2.547c-1.02,1.094-1.803,2.387-2.352,3.881
						C665.596,242.381,665.32,243.994,665.32,245.725 M629.617,257.803l-0.137-18.582h0.137l13.045,18.582h3.021V233.59h-3.158
						l0.137,18.723h-0.137L629.48,233.59h-3.021v24.213H629.617z M591.443,257.803v-2.816h-13.047v-8.094h10.162v-2.814h-10.162
						v-7.672h12.773v-2.816h-15.932v24.213H591.443z M546.951,257.803v-13.197h-10.299v2.816h7.416v0.703
						c0,1.057-0.201,2.006-0.602,2.85c-0.4,0.846-0.955,1.562-1.664,2.148c-0.711,0.586-1.518,1.025-2.42,1.318
						c-0.906,0.295-1.861,0.441-2.867,0.441c-1.191,0-2.295-0.225-3.314-0.676c-1.018-0.449-1.893-1.092-2.625-1.924
						c-0.732-0.834-1.299-1.812-1.701-2.939c-0.398-1.125-0.6-2.342-0.6-3.648c0-1.305,0.195-2.52,0.584-3.645
						c0.389-1.127,0.955-2.105,1.699-2.939s1.631-1.475,2.66-1.926c1.029-0.449,2.174-0.674,3.434-0.674
						c0.961,0,1.836,0.113,2.627,0.338c0.789,0.225,1.477,0.529,2.061,0.914c0.582,0.385,1.062,0.83,1.439,1.334
						c0.379,0.502,0.67,1.053,0.877,1.654h3.295c-0.252-1.023-0.67-1.971-1.252-2.85c-0.584-0.877-1.316-1.643-2.199-2.299
						c-0.881-0.654-1.898-1.16-3.055-1.516s-2.42-0.533-3.793-0.533c-1.695,0-3.262,0.301-4.703,0.904
						c-1.441,0.602-2.684,1.449-3.725,2.541c-1.043,1.092-1.842,2.381-2.404,3.871c-0.561,1.488-0.84,3.098-0.84,4.824
						c0,1.73,0.279,3.34,0.84,4.828c0.562,1.488,1.357,2.779,2.387,3.871c1.029,1.09,2.254,1.938,3.674,2.541
						c1.418,0.602,2.963,0.902,4.635,0.902c0.893,0,1.717-0.076,2.471-0.229c0.756-0.152,1.453-0.393,2.094-0.721
						c0.643-0.328,1.225-0.74,1.752-1.232c0.525-0.492,0.996-1.078,1.408-1.76h0.104l0.549,3.906H546.951z M493.877,248.652h-8.375
						l4.117-11.684h0.139L493.877,248.652z M482.273,257.803l2.232-6.334h10.367l2.232,6.334h3.295l-8.789-24.213h-3.707
						l-8.789,24.213H482.273z M424.876,257.803v-2.816H413.34V233.59h-3.158v24.213H424.876z M392.674,248.652h-8.377l4.12-11.684
						h0.137L392.674,248.652z M381.07,257.803l2.231-6.334h10.368l2.232,6.334h3.296l-8.789-24.213H386.7l-8.789,24.213H381.07z
						 M359.374,233.59h-3.158v24.213h3.158V233.59z M320.238,236.406c0.778,0,1.476,0.1,2.094,0.299s1.139,0.492,1.562,0.879
						c0.424,0.387,0.744,0.852,0.962,1.391c0.217,0.539,0.326,1.139,0.326,1.795c0,0.682-0.103,1.309-0.309,1.883
						s-0.521,1.08-0.944,1.514c-0.424,0.434-0.944,0.773-1.562,1.02c-0.618,0.246-1.328,0.371-2.129,0.371h-5.905v-9.15H320.238z
						 M314.333,257.803v-9.432h5.527l5.871,9.432h3.433l-6.008-9.818c0.847-0.234,1.591-0.574,2.232-1.021
						c0.64-0.445,1.184-0.979,1.63-1.602c0.447-0.619,0.778-1.318,0.996-2.094c0.217-0.773,0.326-1.605,0.326-2.498
						c0-1.127-0.177-2.135-0.532-3.025c-0.355-0.893-0.881-1.648-1.579-2.271c-0.699-0.621-1.562-1.09-2.592-1.408
						c-1.03-0.316-2.209-0.475-3.536-0.475h-8.926v24.213H314.333z M264.211,245.758c0-1.314,0.195-2.537,0.584-3.672
						c0.389-1.131,0.95-2.117,1.682-2.957c0.732-0.838,1.608-1.484,2.627-1.938c1.018-0.453,2.133-0.68,3.347-0.68
						c1.213,0,2.328,0.225,3.347,0.674c1.018,0.451,1.894,1.092,2.626,1.926c0.733,0.834,1.293,1.812,1.683,2.939
						c0.389,1.125,0.583,2.34,0.583,3.645c0,1.307-0.194,2.523-0.583,3.648c-0.39,1.127-0.95,2.105-1.683,2.939
						c-0.732,0.832-1.608,1.475-2.626,1.924c-1.019,0.451-2.134,0.676-3.347,0.676c-1.214,0-2.329-0.223-3.347-0.672
						c-1.019-0.447-1.895-1.084-2.627-1.912c-0.732-0.826-1.293-1.799-1.682-2.918C264.406,248.264,264.211,247.055,264.211,245.758
						 M260.916,245.758c0,1.721,0.274,3.32,0.824,4.803c0.549,1.482,1.338,2.766,2.368,3.852c1.03,1.086,2.254,1.928,3.674,2.527
						c1.419,0.6,2.975,0.898,4.669,0.898c1.67,0,3.215-0.301,4.635-0.902c1.418-0.604,2.643-1.451,3.673-2.541
						c1.03-1.092,1.825-2.383,2.386-3.871s0.841-3.098,0.841-4.828c0-1.727-0.28-3.336-0.841-4.824
						c-0.561-1.49-1.356-2.779-2.386-3.871c-1.03-1.092-2.255-1.939-3.673-2.541c-1.42-0.604-2.965-0.904-4.635-0.904
						c-1.694,0-3.25,0.303-4.669,0.908c-1.42,0.605-2.644,1.457-3.674,2.555c-1.03,1.098-1.819,2.395-2.368,3.891
						C261.19,242.404,260.916,244.021,260.916,245.758 M209.971,236.336v21.467h3.158v-21.467h8.24v-2.746h-19.638v2.746H209.971z
						 M168.226,233.59h-3.158v24.213h3.158V233.59z M144.195,236.406c0.778,0,1.477,0.1,2.095,0.299s1.138,0.492,1.562,0.879
						c0.423,0.387,0.743,0.852,0.961,1.391c0.217,0.539,0.326,1.139,0.326,1.795c0,0.682-0.103,1.309-0.309,1.883
						s-0.521,1.08-0.944,1.514c-0.424,0.434-0.944,0.773-1.562,1.02c-0.618,0.246-1.328,0.371-2.129,0.371h-5.905v-9.15H144.195z
						 M138.29,257.803v-9.432h5.528l5.87,9.432h3.434l-6.008-9.818c0.846-0.234,1.59-0.574,2.231-1.021
						c0.641-0.445,1.185-0.979,1.631-1.602c0.446-0.619,0.778-1.318,0.995-2.094c0.218-0.773,0.327-1.605,0.327-2.498
						c0-1.127-0.178-2.135-0.533-3.025c-0.355-0.893-0.881-1.648-1.579-2.271c-0.698-0.621-1.562-1.09-2.592-1.408
						c-1.03-0.316-2.209-0.475-3.536-0.475h-8.926v24.213H138.29z M91.602,236.406c0.778,0,1.477,0.1,2.095,0.299
						c0.618,0.199,1.138,0.492,1.562,0.879c0.423,0.387,0.743,0.852,0.961,1.391c0.217,0.539,0.326,1.139,0.326,1.795
						c0,0.682-0.103,1.309-0.309,1.883s-0.521,1.08-0.944,1.514c-0.424,0.434-0.944,0.773-1.562,1.02s-1.328,0.371-2.129,0.371
						h-5.905v-9.15H91.602z M85.697,257.803v-9.432h5.528l5.87,9.432h3.433l-6.007-9.818c0.846-0.234,1.59-0.574,2.231-1.021
						c0.641-0.445,1.184-0.979,1.631-1.602c0.446-0.619,0.778-1.318,0.995-2.094c0.218-0.773,0.327-1.605,0.327-2.498
						c0-1.127-0.178-2.135-0.533-3.025c-0.355-0.893-0.881-1.648-1.579-2.271c-0.698-0.621-1.562-1.09-2.592-1.408
						c-1.03-0.316-2.209-0.475-3.536-0.475h-8.926v24.213H85.697z M55.076,257.803v-2.816H42.03v-8.094h10.162v-2.814H42.03v-7.672
						h12.771v-2.816h-15.93v24.213H55.076z M9.073,236.336v21.467h3.158v-21.467h8.24v-2.746H0.834v2.746H9.073z"/>
				</g>
			</g>
			<g clip-path="url(#SVGID_4_)">
				<g>
					<defs>
						<rect id="SVGID_7_" x="52.46" y="83.985" width="805.102" height="35.395"/>
					</defs>
					<clipPath id="SVGID_8_">
						<use xlink:href="#SVGID_7_"  overflow="visible"/>
					</clipPath>
					<path clip-path="url(#SVGID_8_)" fill="#FFFFFF" d="M832.744,118.957l-0.184-24.776h0.184l17.395,24.776h4.027V86.672h-4.211
						l0.184,24.964h-0.184l-17.395-24.964h-4.027v32.284H832.744z M748.52,102.896c0-1.752,0.258-3.384,0.777-4.896
						c0.52-1.51,1.266-2.825,2.242-3.943c0.977-1.118,2.145-1.979,3.502-2.583c1.357-0.605,2.846-0.907,4.463-0.907
						s3.105,0.3,4.463,0.9s2.525,1.456,3.504,2.567c0.975,1.111,1.723,2.416,2.242,3.917c0.518,1.501,0.777,3.122,0.777,4.863
						c0,1.741-0.26,3.362-0.777,4.863c-0.52,1.501-1.268,2.807-2.242,3.918c-0.979,1.11-2.146,1.966-3.504,2.566
						c-1.357,0.6-2.846,0.9-4.463,0.9s-3.105-0.298-4.463-0.894c-1.357-0.596-2.525-1.446-3.502-2.55
						c-0.977-1.102-1.723-2.399-2.242-3.891C748.777,106.236,748.52,104.626,748.52,102.896 M744.125,102.896
						c0,2.293,0.365,4.427,1.098,6.402c0.732,1.976,1.785,3.688,3.158,5.136c1.373,1.447,3.006,2.571,4.898,3.37
						c1.891,0.799,3.967,1.199,6.225,1.199c2.229,0,4.287-0.401,6.182-1.205c1.891-0.803,3.523-1.933,4.896-3.388
						c1.373-1.455,2.434-3.175,3.182-5.161c0.746-1.985,1.121-4.131,1.121-6.435c0-2.304-0.375-4.449-1.121-6.435
						c-0.748-1.985-1.809-3.706-3.182-5.161s-3.006-2.584-4.896-3.388c-1.895-0.803-3.953-1.205-6.182-1.205
						c-2.258,0-4.334,0.404-6.225,1.211c-1.893,0.808-3.525,1.943-4.898,3.405c-1.373,1.463-2.426,3.192-3.158,5.187
						C744.49,98.424,744.125,100.582,744.125,102.896 M722.885,86.672h-4.211v32.284h4.211V86.672z M665.756,90.333v28.624h4.211
						V90.333h10.986v-3.66h-26.182v3.66H665.756z M625.02,106.756h-11.17l5.492-15.579h0.184L625.02,106.756z M609.547,118.957
						l2.975-8.447h13.824l2.975,8.447h4.395l-11.719-32.284h-4.941l-11.721,32.284H609.547z M558.096,118.957l-0.365-24.964h0.182
						l10.986,24.964h3.297l10.984-25.527h0.184l-0.367,25.527h4.213V86.672h-5.127l-11.398,26.465h-0.092L559.01,86.672h-5.125
						v32.284H558.096z M511.039,90.426c1.037,0,1.969,0.133,2.793,0.399c0.824,0.266,1.518,0.657,2.082,1.173
						c0.564,0.516,0.992,1.134,1.281,1.853c0.291,0.72,0.436,1.518,0.436,2.393c0,0.908-0.137,1.745-0.412,2.511
						c-0.275,0.767-0.695,1.439-1.26,2.018s-1.258,1.032-2.082,1.36c-0.822,0.329-1.77,0.493-2.838,0.493h-7.873v-12.2H511.039z
						 M503.166,118.957V106.38h7.369l7.828,12.576h4.578l-8.012-13.092c1.129-0.312,2.121-0.766,2.977-1.361
						c0.854-0.594,1.578-1.306,2.174-2.135c0.594-0.828,1.037-1.76,1.326-2.792c0.291-1.032,0.436-2.142,0.436-3.332
						c0-1.501-0.236-2.846-0.709-4.035c-0.475-1.189-1.176-2.197-2.105-3.027c-0.932-0.828-2.084-1.454-3.457-1.877
						c-1.373-0.422-2.945-0.633-4.715-0.633h-11.9v32.284H503.166z M446.404,102.896c0-1.752,0.26-3.384,0.779-4.896
						c0.518-1.51,1.266-2.825,2.242-3.943c0.977-1.118,2.145-1.979,3.502-2.583c1.357-0.605,2.846-0.907,4.463-0.907
						s3.105,0.3,4.463,0.9s2.525,1.456,3.502,2.567c0.977,1.111,1.725,2.416,2.244,3.917c0.518,1.501,0.777,3.122,0.777,4.863
						c0,1.741-0.26,3.362-0.777,4.863c-0.52,1.501-1.268,2.807-2.244,3.918c-0.977,1.11-2.145,1.966-3.502,2.566
						c-1.357,0.6-2.846,0.9-4.463,0.9s-3.105-0.298-4.463-0.894c-1.357-0.596-2.525-1.446-3.502-2.55
						c-0.977-1.102-1.725-2.399-2.242-3.891C446.664,106.236,446.404,104.626,446.404,102.896 M442.01,102.896
						c0,2.293,0.367,4.427,1.1,6.402c0.732,1.976,1.785,3.688,3.158,5.136c1.373,1.447,3.006,2.571,4.898,3.37
						c1.893,0.799,3.967,1.199,6.225,1.199c2.229,0,4.287-0.401,6.18-1.205c1.893-0.803,3.525-1.933,4.898-3.388
						c1.373-1.455,2.434-3.175,3.182-5.161c0.748-1.985,1.121-4.131,1.121-6.435c0-2.304-0.373-4.449-1.121-6.435
						c-0.748-1.985-1.809-3.706-3.182-5.161s-3.006-2.584-4.898-3.388c-1.893-0.803-3.951-1.205-6.18-1.205
						c-2.258,0-4.332,0.404-6.225,1.211c-1.893,0.808-3.525,1.943-4.898,3.405c-1.373,1.463-2.426,3.192-3.158,5.187
						C442.377,98.424,442.01,100.582,442.01,102.896 M388.178,118.957v-13.514h13.184v-3.754h-13.184V90.426h16.662v-3.754h-20.873
						v32.284H388.178z M332.701,109.485c0,1.404,0.267,2.692,0.801,3.867c0.534,1.175,1.32,2.181,2.357,3.02
						c1.037,0.839,2.312,1.487,3.823,1.945c1.51,0.457,3.211,0.686,5.103,0.686c1.953,0,3.7-0.227,5.242-0.68
						c1.54-0.453,2.845-1.095,3.913-1.925c1.068-0.83,1.884-1.827,2.449-2.989c0.565-1.163,0.847-2.439,0.847-3.829
						c0-1.51-0.275-2.778-0.824-3.805c-0.549-1.026-1.289-1.857-2.22-2.491c-0.931-0.634-1.961-1.125-3.09-1.472
						c-1.129-0.348-2.441-0.657-3.936-0.929l-2.014-0.363c-1.221-0.211-2.266-0.43-3.136-0.656c-0.87-0.227-1.648-0.522-2.334-0.884
						c-0.687-0.362-1.229-0.831-1.625-1.405c-0.397-0.573-0.596-1.283-0.596-2.129c0-0.845,0.184-1.601,0.55-2.265
						c0.366-0.664,0.884-1.215,1.556-1.653c0.671-0.438,1.449-0.77,2.335-0.997c0.884-0.226,1.846-0.34,2.883-0.34
						c1.068,0,2.045,0.12,2.93,0.361c0.885,0.24,1.655,0.594,2.312,1.059c0.655,0.466,1.167,1.037,1.533,1.713
						c0.366,0.676,0.549,1.435,0.549,2.276h4.212c0-1.373-0.283-2.618-0.847-3.732c-0.565-1.114-1.358-2.06-2.38-2.839
						c-1.023-0.779-2.243-1.374-3.662-1.786c-1.419-0.412-2.969-0.618-4.647-0.618c-1.739,0-3.326,0.219-4.76,0.657
						c-1.435,0.438-2.663,1.065-3.685,1.88c-1.023,0.815-1.808,1.781-2.357,2.899c-0.55,1.117-0.824,2.326-0.824,3.624
						c0,1.48,0.289,2.726,0.869,3.738c0.58,1.012,1.366,1.827,2.358,2.446c0.991,0.619,2.067,1.095,3.227,1.427
						c1.159,0.332,2.517,0.635,4.074,0.906l2.014,0.362c1.098,0.182,2.06,0.393,2.884,0.635c0.824,0.242,1.556,0.551,2.197,0.928
						c0.641,0.378,1.144,0.854,1.51,1.427c0.367,0.574,0.55,1.268,0.55,2.084c0,0.906-0.176,1.722-0.527,2.446
						c-0.351,0.726-0.877,1.337-1.579,1.836c-0.702,0.498-1.549,0.875-2.54,1.132c-0.992,0.256-2.129,0.385-3.411,0.385
						c-1.22,0-2.319-0.151-3.295-0.451c-0.977-0.301-1.808-0.722-2.495-1.263c-0.687-0.541-1.206-1.172-1.556-1.893
						c-0.352-0.722-0.527-1.503-0.527-2.345H332.701z M283.447,118.957l-0.183-24.776h0.183l17.395,24.776h4.028V86.672h-4.212
						l0.184,24.964h-0.184l-17.394-24.964h-4.028v32.284H283.447z M213.046,106.756h-11.169l5.493-15.579h0.183L213.046,106.756z
						 M197.574,118.957l2.975-8.447h13.824l2.975,8.447h4.395l-11.719-32.284h-4.943l-11.719,32.284H197.574z M153.996,90.426
						c1.037,0,1.968,0.133,2.792,0.399c0.824,0.266,1.518,0.657,2.083,1.173c0.564,0.516,0.991,1.134,1.282,1.853
						c0.29,0.72,0.435,1.518,0.435,2.393c0,0.908-0.138,1.745-0.412,2.511c-0.275,0.767-0.695,1.439-1.259,2.018
						c-0.565,0.579-1.259,1.032-2.083,1.36c-0.824,0.329-1.77,0.493-2.838,0.493h-7.873v-12.2H153.996z M146.123,118.957V106.38
						h7.37l7.827,12.576h4.578l-8.011-13.092c1.129-0.312,2.121-0.766,2.975-1.361c0.854-0.594,1.58-1.306,2.175-2.135
						c0.595-0.828,1.037-1.76,1.327-2.792c0.29-1.032,0.435-2.142,0.435-3.332c0-1.501-0.237-2.846-0.709-4.035
						c-0.474-1.189-1.176-2.197-2.106-3.027c-0.931-0.828-2.083-1.454-3.456-1.877c-1.373-0.422-2.945-0.633-4.715-0.633h-11.901
						v32.284H146.123z M66.841,90.333v28.624h4.211V90.333h10.986v-3.66H55.854v3.66H66.841z"/>
				</g>
			</g>
			<g clip-path="url(#SVGID_4_)">
				<g>
					<defs>
						<rect id="SVGID_9_" x="-0.821" y="-0.479" width="556.269" height="35.395"/>
					</defs>
					<clipPath id="SVGID_10_">
						<use xlink:href="#SVGID_9_"  overflow="visible"/>
					</clipPath>
					<path clip-path="url(#SVGID_10_)" fill="#FFFFFF" d="M530.631,34.493l-0.184-24.776h0.184l17.395,24.776h4.027V2.208h-4.211
						l0.184,24.964h-0.184L530.447,2.208h-4.029v32.284H530.631z M503.166,2.208h-4.211v32.284h4.211V2.208z M332.701,25.021
						c0,1.404,0.266,2.692,0.801,3.867c0.533,1.175,1.319,2.181,2.357,3.02c1.037,0.839,2.312,1.487,3.822,1.945
						c1.511,0.457,3.212,0.686,5.104,0.686c1.953,0,3.7-0.227,5.241-0.68c1.541-0.453,2.846-1.095,3.914-1.925
						s1.884-1.827,2.449-2.989c0.564-1.163,0.847-2.439,0.847-3.829c0-1.51-0.275-2.778-0.824-3.805
						c-0.549-1.026-1.29-1.857-2.22-2.491c-0.931-0.634-1.961-1.125-3.09-1.472c-1.129-0.348-2.442-0.657-3.937-0.929l-2.014-0.363
						c-1.221-0.211-2.265-0.43-3.135-0.656c-0.87-0.227-1.648-0.522-2.335-0.884c-0.686-0.362-1.228-0.831-1.625-1.405
						c-0.397-0.573-0.595-1.283-0.595-2.129c0-0.845,0.183-1.601,0.55-2.265c0.366-0.664,0.884-1.215,1.556-1.653
						c0.671-0.438,1.449-0.77,2.334-0.997c0.885-0.226,1.846-0.34,2.884-0.34c1.068,0,2.044,0.12,2.93,0.361
						c0.885,0.24,1.655,0.594,2.311,1.059c0.656,0.466,1.168,1.037,1.534,1.713c0.366,0.676,0.549,1.435,0.549,2.276h4.211
						c0-1.373-0.282-2.618-0.846-3.732c-0.565-1.114-1.359-2.06-2.381-2.839s-2.243-1.374-3.662-1.786
						c-1.419-0.412-2.968-0.618-4.646-0.618c-1.739,0-3.326,0.219-4.76,0.657c-1.435,0.438-2.663,1.065-3.685,1.88
						c-1.023,0.815-1.808,1.781-2.358,2.899c-0.549,1.117-0.824,2.326-0.824,3.624c0,1.48,0.29,2.726,0.87,3.738
						c0.579,1.012,1.365,1.827,2.358,2.446c0.991,0.619,2.067,1.095,3.227,1.427c1.159,0.332,2.517,0.635,4.074,0.906l2.014,0.362
						c1.098,0.182,2.06,0.393,2.883,0.635c0.824,0.242,1.557,0.551,2.198,0.928c0.641,0.378,1.144,0.854,1.51,1.427
						c0.366,0.574,0.55,1.268,0.55,2.084c0,0.906-0.176,1.722-0.527,2.446c-0.351,0.725-0.877,1.337-1.579,1.836
						c-0.702,0.498-1.549,0.875-2.541,1.132c-0.992,0.256-2.128,0.385-3.41,0.385c-1.221,0-2.319-0.151-3.296-0.451
						c-0.977-0.301-1.808-0.722-2.494-1.263c-0.687-0.541-1.206-1.172-1.557-1.893c-0.351-0.722-0.526-1.503-0.526-2.345H332.701z
						 M268.066,34.493l-0.183-24.776h0.183l17.394,24.776h4.028V2.208h-4.211l0.183,24.964h-0.183L267.883,2.208h-4.028v32.284
						H268.066z M240.51,22.292h-11.169l5.493-15.579h0.183L240.51,22.292z M225.038,34.493l2.976-8.447h13.824l2.975,8.447h4.394
						L237.489,2.208h-4.944l-11.718,32.284H225.038z M163.517,34.493v-3.754h-17.394V19.945h13.549v-3.754h-13.549V5.962h17.028
						V2.208h-21.24v32.284H163.517z M84.968,18.389c0,2.329,0.366,4.492,1.098,6.487c0.733,1.997,1.77,3.713,3.113,5.15
						c1.342,1.437,2.937,2.548,4.783,3.334c1.846,0.787,3.853,1.18,6.02,1.18c1.8,0,3.463-0.252,4.989-0.755
						c1.526-0.503,2.876-1.211,4.051-2.126c1.175-0.914,2.136-2.012,2.884-3.292c0.747-1.28,1.289-2.698,1.625-4.253h-4.349
						c-0.305,1.051-0.709,1.982-1.213,2.792c-0.503,0.811-1.129,1.486-1.876,2.026c-0.748,0.541-1.633,0.953-2.655,1.239
						c-1.023,0.285-2.175,0.427-3.456,0.427c-1.557,0-2.984-0.3-4.28-0.9c-1.298-0.6-2.419-1.456-3.365-2.566
						c-0.946-1.111-1.678-2.417-2.197-3.918c-0.519-1.501-0.778-3.122-0.778-4.863c0-1.771,0.259-3.414,0.778-4.93
						c0.519-1.516,1.259-2.822,2.22-3.918c0.961-1.095,2.106-1.936,3.433-2.521c1.328-0.585,2.785-0.878,4.372-0.878
						c1.19,0,2.281,0.143,3.273,0.428c0.991,0.285,1.861,0.698,2.609,1.238c0.747,0.541,1.38,1.216,1.9,2.026
						c0.518,0.811,0.93,1.741,1.235,2.791h4.349c-0.336-1.554-0.87-2.972-1.602-4.252s-1.671-2.377-2.815-3.292
						c-1.145-0.915-2.472-1.624-3.983-2.127c-1.51-0.503-3.166-0.754-4.966-0.754c-2.228,0-4.273,0.403-6.134,1.208
						c-1.862,0.805-3.472,1.937-4.829,3.396c-1.358,1.459-2.403,3.183-3.136,5.173C85.334,13.93,84.968,16.079,84.968,18.389
						 M6.967,18.433c0-1.752,0.259-3.384,0.779-4.896c0.518-1.51,1.265-2.825,2.242-3.943c0.977-1.118,2.144-1.979,3.502-2.583
						c1.358-0.605,2.845-0.907,4.463-0.907c1.617,0,3.105,0.3,4.463,0.9s2.525,1.456,3.502,2.567
						c0.976,1.111,1.724,2.416,2.243,3.917c0.519,1.501,0.778,3.122,0.778,4.863c0,1.741-0.259,3.362-0.778,4.863
						c-0.519,1.501-1.267,2.807-2.243,3.918c-0.977,1.11-2.144,1.966-3.502,2.566c-1.358,0.6-2.846,0.9-4.463,0.9
						c-1.618,0-3.105-0.298-4.463-0.894c-1.358-0.596-2.525-1.446-3.502-2.55c-0.977-1.102-1.724-2.399-2.242-3.891
						C7.226,21.772,6.967,20.163,6.967,18.433 M2.573,18.433c0,2.293,0.366,4.427,1.099,6.402c0.732,1.976,1.785,3.688,3.158,5.136
						c1.373,1.447,3.005,2.571,4.898,3.37c1.892,0.799,3.967,1.199,6.225,1.199c2.228,0,4.287-0.401,6.18-1.205
						c1.892-0.803,3.525-1.933,4.898-3.388c1.373-1.455,2.433-3.175,3.181-5.161c0.748-1.985,1.122-4.131,1.122-6.435
						c0-2.304-0.374-4.449-1.122-6.435c-0.748-1.985-1.808-3.706-3.181-5.161s-3.006-2.584-4.898-3.388
						c-1.893-0.803-3.952-1.205-6.18-1.205c-2.258,0-4.333,0.404-6.225,1.211C9.835,4.181,8.203,5.315,6.83,6.777
						c-1.373,1.463-2.426,3.192-3.158,5.188C2.939,13.96,2.573,16.118,2.573,18.433"/>
				</g>
			</g>
			<g clip-path="url(#SVGID_4_)">
				<g>
					<defs>
						<rect id="SVGID_11_" x="-2.561" y="230.916" width="737.327" height="27.299"/>
					</defs>
					<clipPath id="SVGID_12_">
						<use xlink:href="#SVGID_11_"  overflow="visible"/>
					</clipPath>
					<path clip-path="url(#SVGID_12_)" fill="#FFFFFF" d="M722.857,257.803v-9.748l8.514-14.465h-3.295l-6.66,11.404h-0.139
						l-6.385-11.404h-3.57l8.377,14.711v9.502H722.857z M665.32,245.725c0,1.746,0.275,3.369,0.824,4.865
						c0.549,1.498,1.326,2.785,2.334,3.863s2.203,1.912,3.588,2.5c1.385,0.59,2.889,0.885,4.514,0.885
						c1.352,0,2.598-0.189,3.742-0.566s2.158-0.906,3.039-1.594c0.881-0.686,1.602-1.508,2.162-2.469
						c0.562-0.961,0.967-2.023,1.219-3.189h-3.26c-0.229,0.787-0.533,1.486-0.91,2.094c-0.379,0.607-0.848,1.113-1.408,1.52
						s-1.225,0.715-1.99,0.928c-0.768,0.215-1.633,0.322-2.594,0.322c-1.166,0-2.236-0.225-3.209-0.676
						c-0.973-0.449-1.814-1.092-2.523-1.924c-0.709-0.834-1.258-1.812-1.648-2.939c-0.389-1.125-0.584-2.342-0.584-3.648
						c0-1.326,0.195-2.559,0.584-3.695c0.391-1.139,0.945-2.117,1.666-2.939c0.721-0.82,1.578-1.451,2.574-1.891
						s2.088-0.658,3.279-0.658c0.893,0,1.711,0.107,2.455,0.32c0.742,0.215,1.395,0.523,1.957,0.93
						c0.561,0.404,1.033,0.912,1.424,1.52c0.389,0.607,0.699,1.305,0.928,2.094h3.26c-0.252-1.166-0.65-2.23-1.201-3.191
						c-0.549-0.959-1.254-1.781-2.111-2.469c-0.857-0.684-1.854-1.217-2.986-1.594s-2.375-0.566-3.725-0.566
						c-1.672,0-3.205,0.303-4.602,0.906c-1.395,0.604-2.604,1.453-3.621,2.547c-1.02,1.094-1.803,2.387-2.352,3.881
						C665.596,242.381,665.32,243.994,665.32,245.725 M629.617,257.803l-0.137-18.582h0.137l13.045,18.582h3.021V233.59h-3.158
						l0.137,18.723h-0.137L629.48,233.59h-3.021v24.213H629.617z M591.443,257.803v-2.816h-13.047v-8.094h10.162v-2.814h-10.162
						v-7.672h12.773v-2.816h-15.932v24.213H591.443z M546.951,257.803v-13.197h-10.299v2.816h7.416v0.703
						c0,1.057-0.201,2.006-0.602,2.85c-0.4,0.846-0.955,1.562-1.664,2.148c-0.711,0.586-1.518,1.025-2.42,1.318
						c-0.906,0.295-1.861,0.441-2.867,0.441c-1.191,0-2.295-0.225-3.314-0.676c-1.018-0.449-1.893-1.092-2.625-1.924
						c-0.732-0.834-1.299-1.812-1.701-2.939c-0.398-1.125-0.6-2.342-0.6-3.648c0-1.305,0.195-2.52,0.584-3.645
						c0.389-1.127,0.955-2.105,1.699-2.939s1.631-1.475,2.66-1.926c1.029-0.449,2.174-0.674,3.434-0.674
						c0.961,0,1.836,0.113,2.627,0.338c0.789,0.225,1.477,0.529,2.061,0.914c0.582,0.385,1.062,0.83,1.439,1.334
						c0.379,0.502,0.67,1.053,0.877,1.654h3.295c-0.252-1.023-0.67-1.971-1.252-2.85c-0.584-0.877-1.316-1.643-2.199-2.299
						c-0.881-0.654-1.898-1.16-3.055-1.516s-2.42-0.533-3.793-0.533c-1.695,0-3.262,0.301-4.703,0.904
						c-1.441,0.602-2.684,1.449-3.725,2.541c-1.043,1.092-1.842,2.381-2.404,3.871c-0.561,1.488-0.84,3.098-0.84,4.824
						c0,1.73,0.279,3.34,0.84,4.828c0.562,1.488,1.357,2.779,2.387,3.871c1.029,1.09,2.254,1.938,3.674,2.541
						c1.418,0.602,2.963,0.902,4.635,0.902c0.893,0,1.717-0.076,2.471-0.229c0.756-0.152,1.453-0.393,2.094-0.721
						c0.643-0.328,1.225-0.74,1.752-1.232c0.525-0.492,0.996-1.078,1.408-1.76h0.104l0.549,3.906H546.951z M493.877,248.652h-8.375
						l4.117-11.684h0.139L493.877,248.652z M482.273,257.803l2.232-6.334h10.367l2.232,6.334h3.295l-8.789-24.213h-3.707
						l-8.789,24.213H482.273z M424.876,257.803v-2.816H413.34V233.59h-3.158v24.213H424.876z M392.674,248.652h-8.377l4.12-11.684
						h0.137L392.674,248.652z M381.07,257.803l2.231-6.334h10.368l2.232,6.334h3.296l-8.789-24.213H386.7l-8.789,24.213H381.07z
						 M359.374,233.59h-3.158v24.213h3.158V233.59z M320.238,236.406c0.778,0,1.476,0.1,2.094,0.299s1.139,0.492,1.562,0.879
						c0.424,0.387,0.744,0.852,0.962,1.391c0.217,0.539,0.326,1.139,0.326,1.795c0,0.682-0.103,1.309-0.309,1.883
						s-0.521,1.08-0.944,1.514c-0.424,0.434-0.944,0.773-1.562,1.02c-0.618,0.246-1.328,0.371-2.129,0.371h-5.905v-9.15H320.238z
						 M314.333,257.803v-9.432h5.527l5.871,9.432h3.433l-6.008-9.818c0.847-0.234,1.591-0.574,2.232-1.021
						c0.64-0.445,1.184-0.979,1.63-1.602c0.447-0.619,0.778-1.318,0.996-2.094c0.217-0.773,0.326-1.605,0.326-2.498
						c0-1.127-0.177-2.135-0.532-3.025c-0.355-0.893-0.881-1.648-1.579-2.271c-0.699-0.621-1.562-1.09-2.592-1.408
						c-1.03-0.316-2.209-0.475-3.536-0.475h-8.926v24.213H314.333z M264.211,245.758c0-1.314,0.195-2.537,0.584-3.672
						c0.389-1.131,0.95-2.117,1.682-2.957c0.732-0.838,1.608-1.484,2.627-1.938c1.018-0.453,2.133-0.68,3.347-0.68
						c1.213,0,2.328,0.225,3.347,0.674c1.018,0.451,1.894,1.092,2.626,1.926c0.733,0.834,1.293,1.812,1.683,2.939
						c0.389,1.125,0.583,2.34,0.583,3.645c0,1.307-0.194,2.523-0.583,3.648c-0.39,1.127-0.95,2.105-1.683,2.939
						c-0.732,0.832-1.608,1.475-2.626,1.924c-1.019,0.451-2.134,0.676-3.347,0.676c-1.214,0-2.329-0.223-3.347-0.672
						c-1.019-0.447-1.895-1.084-2.627-1.912c-0.732-0.826-1.293-1.799-1.682-2.918C264.406,248.264,264.211,247.055,264.211,245.758
						 M260.916,245.758c0,1.721,0.274,3.32,0.824,4.803c0.549,1.482,1.338,2.766,2.368,3.852c1.03,1.086,2.254,1.928,3.674,2.527
						c1.419,0.6,2.975,0.898,4.669,0.898c1.67,0,3.215-0.301,4.635-0.902c1.418-0.604,2.643-1.451,3.673-2.541
						c1.03-1.092,1.825-2.383,2.386-3.871s0.841-3.098,0.841-4.828c0-1.727-0.28-3.336-0.841-4.824
						c-0.561-1.49-1.356-2.779-2.386-3.871c-1.03-1.092-2.255-1.939-3.673-2.541c-1.42-0.604-2.965-0.904-4.635-0.904
						c-1.694,0-3.25,0.303-4.669,0.908c-1.42,0.605-2.644,1.457-3.674,2.555c-1.03,1.098-1.819,2.395-2.368,3.891
						C261.19,242.404,260.916,244.021,260.916,245.758 M209.971,236.336v21.467h3.158v-21.467h8.24v-2.746h-19.638v2.746H209.971z
						 M168.226,233.59h-3.158v24.213h3.158V233.59z M144.195,236.406c0.778,0,1.477,0.1,2.095,0.299s1.138,0.492,1.562,0.879
						c0.423,0.387,0.743,0.852,0.961,1.391c0.217,0.539,0.326,1.139,0.326,1.795c0,0.682-0.103,1.309-0.309,1.883
						s-0.521,1.08-0.944,1.514c-0.424,0.434-0.944,0.773-1.562,1.02c-0.618,0.246-1.328,0.371-2.129,0.371h-5.905v-9.15H144.195z
						 M138.29,257.803v-9.432h5.528l5.87,9.432h3.434l-6.008-9.818c0.846-0.234,1.59-0.574,2.231-1.021
						c0.641-0.445,1.185-0.979,1.631-1.602c0.446-0.619,0.778-1.318,0.995-2.094c0.218-0.773,0.327-1.605,0.327-2.498
						c0-1.127-0.178-2.135-0.533-3.025c-0.355-0.893-0.881-1.648-1.579-2.271c-0.698-0.621-1.562-1.09-2.592-1.408
						c-1.03-0.316-2.209-0.475-3.536-0.475h-8.926v24.213H138.29z M91.602,236.406c0.778,0,1.477,0.1,2.095,0.299
						c0.618,0.199,1.138,0.492,1.562,0.879c0.423,0.387,0.743,0.852,0.961,1.391c0.217,0.539,0.326,1.139,0.326,1.795
						c0,0.682-0.103,1.309-0.309,1.883s-0.521,1.08-0.944,1.514c-0.424,0.434-0.944,0.773-1.562,1.02s-1.328,0.371-2.129,0.371
						h-5.905v-9.15H91.602z M85.697,257.803v-9.432h5.528l5.87,9.432h3.433l-6.007-9.818c0.846-0.234,1.59-0.574,2.231-1.021
						c0.641-0.445,1.184-0.979,1.631-1.602c0.446-0.619,0.778-1.318,0.995-2.094c0.218-0.773,0.327-1.605,0.327-2.498
						c0-1.127-0.178-2.135-0.533-3.025c-0.355-0.893-0.881-1.648-1.579-2.271c-0.698-0.621-1.562-1.09-2.592-1.408
						c-1.03-0.316-2.209-0.475-3.536-0.475h-8.926v24.213H85.697z M55.076,257.803v-2.816H42.03v-8.094h10.162v-2.814H42.03v-7.672
						h12.771v-2.816h-15.93v24.213H55.076z M9.073,236.336v21.467h3.158v-21.467h8.24v-2.746H0.834v2.746H9.073z"/>
				</g>
			</g>
			<g clip-path="url(#SVGID_4_)">
				<g>
					<defs>
						<rect id="SVGID_13_" x="52.46" y="83.985" width="805.102" height="35.395"/>
					</defs>
					<clipPath id="SVGID_14_">
						<use xlink:href="#SVGID_13_"  overflow="visible"/>
					</clipPath>
					<path clip-path="url(#SVGID_14_)" fill="#FFFFFF" d="M832.744,118.957l-0.184-24.776h0.184l17.395,24.776h4.027V86.672h-4.211
						l0.184,24.964h-0.184l-17.395-24.964h-4.027v32.284H832.744z M748.52,102.896c0-1.752,0.258-3.384,0.777-4.896
						c0.52-1.51,1.266-2.825,2.242-3.943c0.977-1.118,2.145-1.979,3.502-2.583c1.357-0.605,2.846-0.907,4.463-0.907
						s3.105,0.3,4.463,0.9s2.525,1.456,3.504,2.567c0.975,1.111,1.723,2.416,2.242,3.917c0.518,1.501,0.777,3.122,0.777,4.863
						c0,1.741-0.26,3.362-0.777,4.863c-0.52,1.501-1.268,2.807-2.242,3.918c-0.979,1.11-2.146,1.966-3.504,2.566
						c-1.357,0.6-2.846,0.9-4.463,0.9s-3.105-0.298-4.463-0.894c-1.357-0.596-2.525-1.446-3.502-2.55
						c-0.977-1.102-1.723-2.399-2.242-3.891C748.777,106.236,748.52,104.626,748.52,102.896 M744.125,102.896
						c0,2.293,0.365,4.427,1.098,6.402c0.732,1.976,1.785,3.688,3.158,5.136c1.373,1.447,3.006,2.571,4.898,3.37
						c1.891,0.799,3.967,1.199,6.225,1.199c2.229,0,4.287-0.401,6.182-1.205c1.891-0.803,3.523-1.933,4.896-3.388
						c1.373-1.455,2.434-3.175,3.182-5.161c0.746-1.985,1.121-4.131,1.121-6.435c0-2.304-0.375-4.449-1.121-6.435
						c-0.748-1.985-1.809-3.706-3.182-5.161s-3.006-2.584-4.896-3.388c-1.895-0.803-3.953-1.205-6.182-1.205
						c-2.258,0-4.334,0.404-6.225,1.211c-1.893,0.808-3.525,1.943-4.898,3.405c-1.373,1.463-2.426,3.192-3.158,5.187
						C744.49,98.424,744.125,100.582,744.125,102.896 M722.885,86.672h-4.211v32.284h4.211V86.672z M665.756,90.333v28.624h4.211
						V90.333h10.986v-3.66h-26.182v3.66H665.756z M625.02,106.756h-11.17l5.492-15.579h0.184L625.02,106.756z M609.547,118.957
						l2.975-8.447h13.824l2.975,8.447h4.395l-11.719-32.284h-4.941l-11.721,32.284H609.547z M558.096,118.957l-0.365-24.964h0.182
						l10.986,24.964h3.297l10.984-25.527h0.184l-0.367,25.527h4.213V86.672h-5.127l-11.398,26.465h-0.092L559.01,86.672h-5.125
						v32.284H558.096z M511.039,90.426c1.037,0,1.969,0.133,2.793,0.399c0.824,0.266,1.518,0.657,2.082,1.173
						c0.564,0.516,0.992,1.134,1.281,1.853c0.291,0.72,0.436,1.518,0.436,2.393c0,0.908-0.137,1.745-0.412,2.511
						c-0.275,0.767-0.695,1.439-1.26,2.018s-1.258,1.032-2.082,1.36c-0.822,0.329-1.77,0.493-2.838,0.493h-7.873v-12.2H511.039z
						 M503.166,118.957V106.38h7.369l7.828,12.576h4.578l-8.012-13.092c1.129-0.312,2.121-0.766,2.977-1.361
						c0.854-0.594,1.578-1.306,2.174-2.135c0.594-0.828,1.037-1.76,1.326-2.792c0.291-1.032,0.436-2.142,0.436-3.332
						c0-1.501-0.236-2.846-0.709-4.035c-0.475-1.189-1.176-2.197-2.105-3.027c-0.932-0.828-2.084-1.454-3.457-1.877
						c-1.373-0.422-2.945-0.633-4.715-0.633h-11.9v32.284H503.166z M446.404,102.896c0-1.752,0.26-3.384,0.779-4.896
						c0.518-1.51,1.266-2.825,2.242-3.943c0.977-1.118,2.145-1.979,3.502-2.583c1.357-0.605,2.846-0.907,4.463-0.907
						s3.105,0.3,4.463,0.9s2.525,1.456,3.502,2.567c0.977,1.111,1.725,2.416,2.244,3.917c0.518,1.501,0.777,3.122,0.777,4.863
						c0,1.741-0.26,3.362-0.777,4.863c-0.52,1.501-1.268,2.807-2.244,3.918c-0.977,1.11-2.145,1.966-3.502,2.566
						c-1.357,0.6-2.846,0.9-4.463,0.9s-3.105-0.298-4.463-0.894c-1.357-0.596-2.525-1.446-3.502-2.55
						c-0.977-1.102-1.725-2.399-2.242-3.891C446.664,106.236,446.404,104.626,446.404,102.896 M442.01,102.896
						c0,2.293,0.367,4.427,1.1,6.402c0.732,1.976,1.785,3.688,3.158,5.136c1.373,1.447,3.006,2.571,4.898,3.37
						c1.893,0.799,3.967,1.199,6.225,1.199c2.229,0,4.287-0.401,6.18-1.205c1.893-0.803,3.525-1.933,4.898-3.388
						c1.373-1.455,2.434-3.175,3.182-5.161c0.748-1.985,1.121-4.131,1.121-6.435c0-2.304-0.373-4.449-1.121-6.435
						c-0.748-1.985-1.809-3.706-3.182-5.161s-3.006-2.584-4.898-3.388c-1.893-0.803-3.951-1.205-6.18-1.205
						c-2.258,0-4.332,0.404-6.225,1.211c-1.893,0.808-3.525,1.943-4.898,3.405c-1.373,1.463-2.426,3.192-3.158,5.187
						C442.377,98.424,442.01,100.582,442.01,102.896 M388.178,118.957v-13.514h13.184v-3.754h-13.184V90.426h16.662v-3.754h-20.873
						v32.284H388.178z M332.701,109.485c0,1.404,0.267,2.692,0.801,3.867c0.534,1.175,1.32,2.181,2.357,3.02
						c1.037,0.839,2.312,1.487,3.823,1.945c1.51,0.457,3.211,0.686,5.103,0.686c1.953,0,3.7-0.227,5.242-0.68
						c1.54-0.453,2.845-1.095,3.913-1.925c1.068-0.83,1.884-1.827,2.449-2.989c0.565-1.163,0.847-2.439,0.847-3.829
						c0-1.51-0.275-2.778-0.824-3.805c-0.549-1.026-1.289-1.857-2.22-2.491c-0.931-0.634-1.961-1.125-3.09-1.472
						c-1.129-0.348-2.441-0.657-3.936-0.929l-2.014-0.363c-1.221-0.211-2.266-0.43-3.136-0.656c-0.87-0.227-1.648-0.522-2.334-0.884
						c-0.687-0.362-1.229-0.831-1.625-1.405c-0.397-0.573-0.596-1.283-0.596-2.129c0-0.845,0.184-1.601,0.55-2.265
						c0.366-0.664,0.884-1.215,1.556-1.653c0.671-0.438,1.449-0.77,2.335-0.997c0.884-0.226,1.846-0.34,2.883-0.34
						c1.068,0,2.045,0.12,2.93,0.361c0.885,0.24,1.655,0.594,2.312,1.059c0.655,0.466,1.167,1.037,1.533,1.713
						c0.366,0.676,0.549,1.435,0.549,2.276h4.212c0-1.373-0.283-2.618-0.847-3.732c-0.565-1.114-1.358-2.06-2.38-2.839
						c-1.023-0.779-2.243-1.374-3.662-1.786c-1.419-0.412-2.969-0.618-4.647-0.618c-1.739,0-3.326,0.219-4.76,0.657
						c-1.435,0.438-2.663,1.065-3.685,1.88c-1.023,0.815-1.808,1.781-2.357,2.899c-0.55,1.117-0.824,2.326-0.824,3.624
						c0,1.48,0.289,2.726,0.869,3.738c0.58,1.012,1.366,1.827,2.358,2.446c0.991,0.619,2.067,1.095,3.227,1.427
						c1.159,0.332,2.517,0.635,4.074,0.906l2.014,0.362c1.098,0.182,2.06,0.393,2.884,0.635c0.824,0.242,1.556,0.551,2.197,0.928
						c0.641,0.378,1.144,0.854,1.51,1.427c0.367,0.574,0.55,1.268,0.55,2.084c0,0.906-0.176,1.722-0.527,2.446
						c-0.351,0.726-0.877,1.337-1.579,1.836c-0.702,0.498-1.549,0.875-2.54,1.132c-0.992,0.256-2.129,0.385-3.411,0.385
						c-1.22,0-2.319-0.151-3.295-0.451c-0.977-0.301-1.808-0.722-2.495-1.263c-0.687-0.541-1.206-1.172-1.556-1.893
						c-0.352-0.722-0.527-1.503-0.527-2.345H332.701z M283.447,118.957l-0.183-24.776h0.183l17.395,24.776h4.028V86.672h-4.212
						l0.184,24.964h-0.184l-17.394-24.964h-4.028v32.284H283.447z M213.046,106.756h-11.169l5.493-15.579h0.183L213.046,106.756z
						 M197.574,118.957l2.975-8.447h13.824l2.975,8.447h4.395l-11.719-32.284h-4.943l-11.719,32.284H197.574z M153.996,90.426
						c1.037,0,1.968,0.133,2.792,0.399c0.824,0.266,1.518,0.657,2.083,1.173c0.564,0.516,0.991,1.134,1.282,1.853
						c0.29,0.72,0.435,1.518,0.435,2.393c0,0.908-0.138,1.745-0.412,2.511c-0.275,0.767-0.695,1.439-1.259,2.018
						c-0.565,0.579-1.259,1.032-2.083,1.36c-0.824,0.329-1.77,0.493-2.838,0.493h-7.873v-12.2H153.996z M146.123,118.957V106.38
						h7.37l7.827,12.576h4.578l-8.011-13.092c1.129-0.312,2.121-0.766,2.975-1.361c0.854-0.594,1.58-1.306,2.175-2.135
						c0.595-0.828,1.037-1.76,1.327-2.792c0.29-1.032,0.435-2.142,0.435-3.332c0-1.501-0.237-2.846-0.709-4.035
						c-0.474-1.189-1.176-2.197-2.106-3.027c-0.931-0.828-2.083-1.454-3.456-1.877c-1.373-0.422-2.945-0.633-4.715-0.633h-11.901
						v32.284H146.123z M66.841,90.333v28.624h4.211V90.333h10.986v-3.66H55.854v3.66H66.841z"/>
				</g>
			</g>
			<g clip-path="url(#SVGID_4_)">
				<g>
					<defs>
						<rect id="SVGID_15_" x="-0.821" y="-0.479" width="556.269" height="35.395"/>
					</defs>
					<clipPath id="SVGID_16_">
						<use xlink:href="#SVGID_15_"  overflow="visible"/>
					</clipPath>
					<path clip-path="url(#SVGID_16_)" fill="#FFFFFF" d="M530.631,34.493l-0.184-24.776h0.184l17.395,24.776h4.027V2.208h-4.211
						l0.184,24.964h-0.184L530.447,2.208h-4.029v32.284H530.631z M503.166,2.208h-4.211v32.284h4.211V2.208z M332.701,25.021
						c0,1.404,0.266,2.692,0.801,3.867c0.533,1.175,1.319,2.181,2.357,3.02c1.037,0.839,2.312,1.487,3.822,1.945
						c1.511,0.457,3.212,0.686,5.104,0.686c1.953,0,3.7-0.227,5.241-0.68c1.541-0.453,2.846-1.095,3.914-1.925
						s1.884-1.827,2.449-2.989c0.564-1.163,0.847-2.439,0.847-3.829c0-1.51-0.275-2.778-0.824-3.805
						c-0.549-1.026-1.29-1.857-2.22-2.491c-0.931-0.634-1.961-1.125-3.09-1.472c-1.129-0.348-2.442-0.657-3.937-0.929l-2.014-0.363
						c-1.221-0.211-2.265-0.43-3.135-0.656c-0.87-0.227-1.648-0.522-2.335-0.884c-0.686-0.362-1.228-0.831-1.625-1.405
						c-0.397-0.573-0.595-1.283-0.595-2.129c0-0.845,0.183-1.601,0.55-2.265c0.366-0.664,0.884-1.215,1.556-1.653
						c0.671-0.438,1.449-0.77,2.334-0.997c0.885-0.226,1.846-0.34,2.884-0.34c1.068,0,2.044,0.12,2.93,0.361
						c0.885,0.24,1.655,0.594,2.311,1.059c0.656,0.466,1.168,1.037,1.534,1.713c0.366,0.676,0.549,1.435,0.549,2.276h4.211
						c0-1.373-0.282-2.618-0.846-3.732c-0.565-1.114-1.359-2.06-2.381-2.839s-2.243-1.374-3.662-1.786
						c-1.419-0.412-2.968-0.618-4.646-0.618c-1.739,0-3.326,0.219-4.76,0.657c-1.435,0.438-2.663,1.065-3.685,1.88
						c-1.023,0.815-1.808,1.781-2.358,2.899c-0.549,1.117-0.824,2.326-0.824,3.624c0,1.48,0.29,2.726,0.87,3.738
						c0.579,1.012,1.365,1.827,2.358,2.446c0.991,0.619,2.067,1.095,3.227,1.427c1.159,0.332,2.517,0.635,4.074,0.906l2.014,0.362
						c1.098,0.182,2.06,0.393,2.883,0.635c0.824,0.242,1.557,0.551,2.198,0.928c0.641,0.378,1.144,0.854,1.51,1.427
						c0.366,0.574,0.55,1.268,0.55,2.084c0,0.906-0.176,1.722-0.527,2.446c-0.351,0.725-0.877,1.337-1.579,1.836
						c-0.702,0.498-1.549,0.875-2.541,1.132c-0.992,0.256-2.128,0.385-3.41,0.385c-1.221,0-2.319-0.151-3.296-0.451
						c-0.977-0.301-1.808-0.722-2.494-1.263c-0.687-0.541-1.206-1.172-1.557-1.893c-0.351-0.722-0.526-1.503-0.526-2.345H332.701z
						 M268.066,34.493l-0.183-24.776h0.183l17.394,24.776h4.028V2.208h-4.211l0.183,24.964h-0.183L267.883,2.208h-4.028v32.284
						H268.066z M240.51,22.292h-11.169l5.493-15.579h0.183L240.51,22.292z M225.038,34.493l2.976-8.447h13.824l2.975,8.447h4.394
						L237.489,2.208h-4.944l-11.718,32.284H225.038z M163.517,34.493v-3.754h-17.394V19.945h13.549v-3.754h-13.549V5.962h17.028
						V2.208h-21.24v32.284H163.517z M84.968,18.389c0,2.329,0.366,4.492,1.098,6.487c0.733,1.997,1.77,3.713,3.113,5.15
						c1.342,1.437,2.937,2.548,4.783,3.334c1.846,0.787,3.853,1.18,6.02,1.18c1.8,0,3.463-0.252,4.989-0.755
						c1.526-0.503,2.876-1.211,4.051-2.126c1.175-0.914,2.136-2.012,2.884-3.292c0.747-1.28,1.289-2.698,1.625-4.253h-4.349
						c-0.305,1.051-0.709,1.982-1.213,2.792c-0.503,0.811-1.129,1.486-1.876,2.026c-0.748,0.541-1.633,0.953-2.655,1.239
						c-1.023,0.285-2.175,0.427-3.456,0.427c-1.557,0-2.984-0.3-4.28-0.9c-1.298-0.6-2.419-1.456-3.365-2.566
						c-0.946-1.111-1.678-2.417-2.197-3.918c-0.519-1.501-0.778-3.122-0.778-4.863c0-1.771,0.259-3.414,0.778-4.93
						c0.519-1.516,1.259-2.822,2.22-3.918c0.961-1.095,2.106-1.936,3.433-2.521c1.328-0.585,2.785-0.878,4.372-0.878
						c1.19,0,2.281,0.143,3.273,0.428c0.991,0.285,1.861,0.698,2.609,1.238c0.747,0.541,1.38,1.216,1.9,2.026
						c0.518,0.811,0.93,1.741,1.235,2.791h4.349c-0.336-1.554-0.87-2.972-1.602-4.252s-1.671-2.377-2.815-3.292
						c-1.145-0.915-2.472-1.624-3.983-2.127c-1.51-0.503-3.166-0.754-4.966-0.754c-2.228,0-4.273,0.403-6.134,1.208
						c-1.862,0.805-3.472,1.937-4.829,3.396c-1.358,1.459-2.403,3.183-3.136,5.173C85.334,13.93,84.968,16.079,84.968,18.389
						 M6.967,18.433c0-1.752,0.259-3.384,0.779-4.896c0.518-1.51,1.265-2.825,2.242-3.943c0.977-1.118,2.144-1.979,3.502-2.583
						c1.358-0.605,2.845-0.907,4.463-0.907c1.617,0,3.105,0.3,4.463,0.9s2.525,1.456,3.502,2.567
						c0.976,1.111,1.724,2.416,2.243,3.917c0.519,1.501,0.778,3.122,0.778,4.863c0,1.741-0.259,3.362-0.778,4.863
						c-0.519,1.501-1.267,2.807-2.243,3.918c-0.977,1.11-2.144,1.966-3.502,2.566c-1.358,0.6-2.846,0.9-4.463,0.9
						c-1.618,0-3.105-0.298-4.463-0.894c-1.358-0.596-2.525-1.446-3.502-2.55c-0.977-1.102-1.724-2.399-2.242-3.891
						C7.226,21.772,6.967,20.163,6.967,18.433 M2.573,18.433c0,2.293,0.366,4.427,1.099,6.402c0.732,1.976,1.785,3.688,3.158,5.136
						c1.373,1.447,3.005,2.571,4.898,3.37c1.892,0.799,3.967,1.199,6.225,1.199c2.228,0,4.287-0.401,6.18-1.205
						c1.892-0.803,3.525-1.933,4.898-3.388c1.373-1.455,2.433-3.175,3.181-5.161c0.748-1.985,1.122-4.131,1.122-6.435
						c0-2.304-0.374-4.449-1.122-6.435c-0.748-1.985-1.808-3.706-3.181-5.161s-3.006-2.584-4.898-3.388
						c-1.893-0.803-3.952-1.205-6.18-1.205c-2.258,0-4.333,0.404-6.225,1.211C9.835,4.181,8.203,5.315,6.83,6.777
						c-1.373,1.463-2.426,3.192-3.158,5.188C2.939,13.96,2.573,16.118,2.573,18.433"/>
				</g>
			</g>
			<g clip-path="url(#SVGID_4_)">
				<g>
					<defs>
						<rect id="SVGID_17_" x="-2.561" y="230.916" width="737.327" height="27.299"/>
					</defs>
					<clipPath id="SVGID_18_">
						<use xlink:href="#SVGID_17_"  overflow="visible"/>
					</clipPath>
					<path clip-path="url(#SVGID_18_)" fill="#FFFFFF" d="M722.857,257.803v-9.748l8.514-14.465h-3.295l-6.66,11.404h-0.139
						l-6.385-11.404h-3.57l8.377,14.711v9.502H722.857z M665.32,245.725c0,1.746,0.275,3.369,0.824,4.865
						c0.549,1.498,1.326,2.785,2.334,3.863s2.203,1.912,3.588,2.5c1.385,0.59,2.889,0.885,4.514,0.885
						c1.352,0,2.598-0.189,3.742-0.566s2.158-0.906,3.039-1.594c0.881-0.686,1.602-1.508,2.162-2.469
						c0.562-0.961,0.967-2.023,1.219-3.189h-3.26c-0.229,0.787-0.533,1.486-0.91,2.094c-0.379,0.607-0.848,1.113-1.408,1.52
						s-1.225,0.715-1.99,0.928c-0.768,0.215-1.633,0.322-2.594,0.322c-1.166,0-2.236-0.225-3.209-0.676
						c-0.973-0.449-1.814-1.092-2.523-1.924c-0.709-0.834-1.258-1.812-1.648-2.939c-0.389-1.125-0.584-2.342-0.584-3.648
						c0-1.326,0.195-2.559,0.584-3.695c0.391-1.139,0.945-2.117,1.666-2.939c0.721-0.82,1.578-1.451,2.574-1.891
						s2.088-0.658,3.279-0.658c0.893,0,1.711,0.107,2.455,0.32c0.742,0.215,1.395,0.523,1.957,0.93
						c0.561,0.404,1.033,0.912,1.424,1.52c0.389,0.607,0.699,1.305,0.928,2.094h3.26c-0.252-1.166-0.65-2.23-1.201-3.191
						c-0.549-0.959-1.254-1.781-2.111-2.469c-0.857-0.684-1.854-1.217-2.986-1.594s-2.375-0.566-3.725-0.566
						c-1.672,0-3.205,0.303-4.602,0.906c-1.395,0.604-2.604,1.453-3.621,2.547c-1.02,1.094-1.803,2.387-2.352,3.881
						C665.596,242.381,665.32,243.994,665.32,245.725 M629.617,257.803l-0.137-18.582h0.137l13.045,18.582h3.021V233.59h-3.158
						l0.137,18.723h-0.137L629.48,233.59h-3.021v24.213H629.617z M591.443,257.803v-2.816h-13.047v-8.094h10.162v-2.814h-10.162
						v-7.672h12.773v-2.816h-15.932v24.213H591.443z M546.951,257.803v-13.197h-10.299v2.816h7.416v0.703
						c0,1.057-0.201,2.006-0.602,2.85c-0.4,0.846-0.955,1.562-1.664,2.148c-0.711,0.586-1.518,1.025-2.42,1.318
						c-0.906,0.295-1.861,0.441-2.867,0.441c-1.191,0-2.295-0.225-3.314-0.676c-1.018-0.449-1.893-1.092-2.625-1.924
						c-0.732-0.834-1.299-1.812-1.701-2.939c-0.398-1.125-0.6-2.342-0.6-3.648c0-1.305,0.195-2.52,0.584-3.645
						c0.389-1.127,0.955-2.105,1.699-2.939s1.631-1.475,2.66-1.926c1.029-0.449,2.174-0.674,3.434-0.674
						c0.961,0,1.836,0.113,2.627,0.338c0.789,0.225,1.477,0.529,2.061,0.914c0.582,0.385,1.062,0.83,1.439,1.334
						c0.379,0.502,0.67,1.053,0.877,1.654h3.295c-0.252-1.023-0.67-1.971-1.252-2.85c-0.584-0.877-1.316-1.643-2.199-2.299
						c-0.881-0.654-1.898-1.16-3.055-1.516s-2.42-0.533-3.793-0.533c-1.695,0-3.262,0.301-4.703,0.904
						c-1.441,0.602-2.684,1.449-3.725,2.541c-1.043,1.092-1.842,2.381-2.404,3.871c-0.561,1.488-0.84,3.098-0.84,4.824
						c0,1.73,0.279,3.34,0.84,4.828c0.562,1.488,1.357,2.779,2.387,3.871c1.029,1.09,2.254,1.938,3.674,2.541
						c1.418,0.602,2.963,0.902,4.635,0.902c0.893,0,1.717-0.076,2.471-0.229c0.756-0.152,1.453-0.393,2.094-0.721
						c0.643-0.328,1.225-0.74,1.752-1.232c0.525-0.492,0.996-1.078,1.408-1.76h0.104l0.549,3.906H546.951z M493.877,248.652h-8.375
						l4.117-11.684h0.139L493.877,248.652z M482.273,257.803l2.232-6.334h10.367l2.232,6.334h3.295l-8.789-24.213h-3.707
						l-8.789,24.213H482.273z M424.876,257.803v-2.816H413.34V233.59h-3.158v24.213H424.876z M392.674,248.652h-8.377l4.12-11.684
						h0.137L392.674,248.652z M381.07,257.803l2.231-6.334h10.368l2.232,6.334h3.296l-8.789-24.213H386.7l-8.789,24.213H381.07z
						 M359.374,233.59h-3.158v24.213h3.158V233.59z M320.238,236.406c0.778,0,1.476,0.1,2.094,0.299s1.139,0.492,1.562,0.879
						c0.424,0.387,0.744,0.852,0.962,1.391c0.217,0.539,0.326,1.139,0.326,1.795c0,0.682-0.103,1.309-0.309,1.883
						s-0.521,1.08-0.944,1.514c-0.424,0.434-0.944,0.773-1.562,1.02c-0.618,0.246-1.328,0.371-2.129,0.371h-5.905v-9.15H320.238z
						 M314.333,257.803v-9.432h5.527l5.871,9.432h3.433l-6.008-9.818c0.847-0.234,1.591-0.574,2.232-1.021
						c0.64-0.445,1.184-0.979,1.63-1.602c0.447-0.619,0.778-1.318,0.996-2.094c0.217-0.773,0.326-1.605,0.326-2.498
						c0-1.127-0.177-2.135-0.532-3.025c-0.355-0.893-0.881-1.648-1.579-2.271c-0.699-0.621-1.562-1.09-2.592-1.408
						c-1.03-0.316-2.209-0.475-3.536-0.475h-8.926v24.213H314.333z M264.211,245.758c0-1.314,0.195-2.537,0.584-3.672
						c0.389-1.131,0.95-2.117,1.682-2.957c0.732-0.838,1.608-1.484,2.627-1.938c1.018-0.453,2.133-0.68,3.347-0.68
						c1.213,0,2.328,0.225,3.347,0.674c1.018,0.451,1.894,1.092,2.626,1.926c0.733,0.834,1.293,1.812,1.683,2.939
						c0.389,1.125,0.583,2.34,0.583,3.645c0,1.307-0.194,2.523-0.583,3.648c-0.39,1.127-0.95,2.105-1.683,2.939
						c-0.732,0.832-1.608,1.475-2.626,1.924c-1.019,0.451-2.134,0.676-3.347,0.676c-1.214,0-2.329-0.223-3.347-0.672
						c-1.019-0.447-1.895-1.084-2.627-1.912c-0.732-0.826-1.293-1.799-1.682-2.918C264.406,248.264,264.211,247.055,264.211,245.758
						 M260.916,245.758c0,1.721,0.274,3.32,0.824,4.803c0.549,1.482,1.338,2.766,2.368,3.852c1.03,1.086,2.254,1.928,3.674,2.527
						c1.419,0.6,2.975,0.898,4.669,0.898c1.67,0,3.215-0.301,4.635-0.902c1.418-0.604,2.643-1.451,3.673-2.541
						c1.03-1.092,1.825-2.383,2.386-3.871s0.841-3.098,0.841-4.828c0-1.727-0.28-3.336-0.841-4.824
						c-0.561-1.49-1.356-2.779-2.386-3.871c-1.03-1.092-2.255-1.939-3.673-2.541c-1.42-0.604-2.965-0.904-4.635-0.904
						c-1.694,0-3.25,0.303-4.669,0.908c-1.42,0.605-2.644,1.457-3.674,2.555c-1.03,1.098-1.819,2.395-2.368,3.891
						C261.19,242.404,260.916,244.021,260.916,245.758 M209.971,236.336v21.467h3.158v-21.467h8.24v-2.746h-19.638v2.746H209.971z
						 M168.226,233.59h-3.158v24.213h3.158V233.59z M144.195,236.406c0.778,0,1.477,0.1,2.095,0.299s1.138,0.492,1.562,0.879
						c0.423,0.387,0.743,0.852,0.961,1.391c0.217,0.539,0.326,1.139,0.326,1.795c0,0.682-0.103,1.309-0.309,1.883
						s-0.521,1.08-0.944,1.514c-0.424,0.434-0.944,0.773-1.562,1.02c-0.618,0.246-1.328,0.371-2.129,0.371h-5.905v-9.15H144.195z
						 M138.29,257.803v-9.432h5.528l5.87,9.432h3.434l-6.008-9.818c0.846-0.234,1.59-0.574,2.231-1.021
						c0.641-0.445,1.185-0.979,1.631-1.602c0.446-0.619,0.778-1.318,0.995-2.094c0.218-0.773,0.327-1.605,0.327-2.498
						c0-1.127-0.178-2.135-0.533-3.025c-0.355-0.893-0.881-1.648-1.579-2.271c-0.698-0.621-1.562-1.09-2.592-1.408
						c-1.03-0.316-2.209-0.475-3.536-0.475h-8.926v24.213H138.29z M91.602,236.406c0.778,0,1.477,0.1,2.095,0.299
						c0.618,0.199,1.138,0.492,1.562,0.879c0.423,0.387,0.743,0.852,0.961,1.391c0.217,0.539,0.326,1.139,0.326,1.795
						c0,0.682-0.103,1.309-0.309,1.883s-0.521,1.08-0.944,1.514c-0.424,0.434-0.944,0.773-1.562,1.02s-1.328,0.371-2.129,0.371
						h-5.905v-9.15H91.602z M85.697,257.803v-9.432h5.528l5.87,9.432h3.433l-6.007-9.818c0.846-0.234,1.59-0.574,2.231-1.021
						c0.641-0.445,1.184-0.979,1.631-1.602c0.446-0.619,0.778-1.318,0.995-2.094c0.218-0.773,0.327-1.605,0.327-2.498
						c0-1.127-0.178-2.135-0.533-3.025c-0.355-0.893-0.881-1.648-1.579-2.271c-0.698-0.621-1.562-1.09-2.592-1.408
						c-1.03-0.316-2.209-0.475-3.536-0.475h-8.926v24.213H85.697z M55.076,257.803v-2.816H42.03v-8.094h10.162v-2.814H42.03v-7.672
						h12.771v-2.816h-15.93v24.213H55.076z M9.073,236.336v21.467h3.158v-21.467h8.24v-2.746H0.834v2.746H9.073z"/>
				</g>
			</g>
			<g clip-path="url(#SVGID_4_)">
				<g>
					<defs>
						<rect id="SVGID_19_" x="52.46" y="83.985" width="805.102" height="35.395"/>
					</defs>
					<clipPath id="SVGID_20_">
						<use xlink:href="#SVGID_19_"  overflow="visible"/>
					</clipPath>
					<path clip-path="url(#SVGID_20_)" fill="#FFFFFF" d="M832.744,118.957l-0.184-24.776h0.184l17.395,24.776h4.027V86.672h-4.211
						l0.184,24.964h-0.184l-17.395-24.964h-4.027v32.284H832.744z M748.52,102.896c0-1.752,0.258-3.384,0.777-4.896
						c0.52-1.51,1.266-2.825,2.242-3.943c0.977-1.118,2.145-1.979,3.502-2.583c1.357-0.605,2.846-0.907,4.463-0.907
						s3.105,0.3,4.463,0.9s2.525,1.456,3.504,2.567c0.975,1.111,1.723,2.416,2.242,3.917c0.518,1.501,0.777,3.122,0.777,4.863
						c0,1.741-0.26,3.362-0.777,4.863c-0.52,1.501-1.268,2.807-2.242,3.918c-0.979,1.11-2.146,1.966-3.504,2.566
						c-1.357,0.6-2.846,0.9-4.463,0.9s-3.105-0.298-4.463-0.894c-1.357-0.596-2.525-1.446-3.502-2.55
						c-0.977-1.102-1.723-2.399-2.242-3.891C748.777,106.236,748.52,104.626,748.52,102.896 M744.125,102.896
						c0,2.293,0.365,4.427,1.098,6.402c0.732,1.976,1.785,3.688,3.158,5.136c1.373,1.447,3.006,2.571,4.898,3.37
						c1.891,0.799,3.967,1.199,6.225,1.199c2.229,0,4.287-0.401,6.182-1.205c1.891-0.803,3.523-1.933,4.896-3.388
						c1.373-1.455,2.434-3.175,3.182-5.161c0.746-1.985,1.121-4.131,1.121-6.435c0-2.304-0.375-4.449-1.121-6.435
						c-0.748-1.985-1.809-3.706-3.182-5.161s-3.006-2.584-4.896-3.388c-1.895-0.803-3.953-1.205-6.182-1.205
						c-2.258,0-4.334,0.404-6.225,1.211c-1.893,0.808-3.525,1.943-4.898,3.405c-1.373,1.463-2.426,3.192-3.158,5.187
						C744.49,98.424,744.125,100.582,744.125,102.896 M722.885,86.672h-4.211v32.284h4.211V86.672z M665.756,90.333v28.624h4.211
						V90.333h10.986v-3.66h-26.182v3.66H665.756z M625.02,106.756h-11.17l5.492-15.579h0.184L625.02,106.756z M609.547,118.957
						l2.975-8.447h13.824l2.975,8.447h4.395l-11.719-32.284h-4.941l-11.721,32.284H609.547z M558.096,118.957l-0.365-24.964h0.182
						l10.986,24.964h3.297l10.984-25.527h0.184l-0.367,25.527h4.213V86.672h-5.127l-11.398,26.465h-0.092L559.01,86.672h-5.125
						v32.284H558.096z M511.039,90.426c1.037,0,1.969,0.133,2.793,0.399c0.824,0.266,1.518,0.657,2.082,1.173
						c0.564,0.516,0.992,1.134,1.281,1.853c0.291,0.72,0.436,1.518,0.436,2.393c0,0.908-0.137,1.745-0.412,2.511
						c-0.275,0.767-0.695,1.439-1.26,2.018s-1.258,1.032-2.082,1.36c-0.822,0.329-1.77,0.493-2.838,0.493h-7.873v-12.2H511.039z
						 M503.166,118.957V106.38h7.369l7.828,12.576h4.578l-8.012-13.092c1.129-0.312,2.121-0.766,2.977-1.361
						c0.854-0.594,1.578-1.306,2.174-2.135c0.594-0.828,1.037-1.76,1.326-2.792c0.291-1.032,0.436-2.142,0.436-3.332
						c0-1.501-0.236-2.846-0.709-4.035c-0.475-1.189-1.176-2.197-2.105-3.027c-0.932-0.828-2.084-1.454-3.457-1.877
						c-1.373-0.422-2.945-0.633-4.715-0.633h-11.9v32.284H503.166z M446.404,102.896c0-1.752,0.26-3.384,0.779-4.896
						c0.518-1.51,1.266-2.825,2.242-3.943c0.977-1.118,2.145-1.979,3.502-2.583c1.357-0.605,2.846-0.907,4.463-0.907
						s3.105,0.3,4.463,0.9s2.525,1.456,3.502,2.567c0.977,1.111,1.725,2.416,2.244,3.917c0.518,1.501,0.777,3.122,0.777,4.863
						c0,1.741-0.26,3.362-0.777,4.863c-0.52,1.501-1.268,2.807-2.244,3.918c-0.977,1.11-2.145,1.966-3.502,2.566
						c-1.357,0.6-2.846,0.9-4.463,0.9s-3.105-0.298-4.463-0.894c-1.357-0.596-2.525-1.446-3.502-2.55
						c-0.977-1.102-1.725-2.399-2.242-3.891C446.664,106.236,446.404,104.626,446.404,102.896 M442.01,102.896
						c0,2.293,0.367,4.427,1.1,6.402c0.732,1.976,1.785,3.688,3.158,5.136c1.373,1.447,3.006,2.571,4.898,3.37
						c1.893,0.799,3.967,1.199,6.225,1.199c2.229,0,4.287-0.401,6.18-1.205c1.893-0.803,3.525-1.933,4.898-3.388
						c1.373-1.455,2.434-3.175,3.182-5.161c0.748-1.985,1.121-4.131,1.121-6.435c0-2.304-0.373-4.449-1.121-6.435
						c-0.748-1.985-1.809-3.706-3.182-5.161s-3.006-2.584-4.898-3.388c-1.893-0.803-3.951-1.205-6.18-1.205
						c-2.258,0-4.332,0.404-6.225,1.211c-1.893,0.808-3.525,1.943-4.898,3.405c-1.373,1.463-2.426,3.192-3.158,5.187
						C442.377,98.424,442.01,100.582,442.01,102.896 M388.178,118.957v-13.514h13.184v-3.754h-13.184V90.426h16.662v-3.754h-20.873
						v32.284H388.178z M332.701,109.485c0,1.404,0.267,2.692,0.801,3.867c0.534,1.175,1.32,2.181,2.357,3.02
						c1.037,0.839,2.312,1.487,3.823,1.945c1.51,0.457,3.211,0.686,5.103,0.686c1.953,0,3.7-0.227,5.242-0.68
						c1.54-0.453,2.845-1.095,3.913-1.925c1.068-0.83,1.884-1.827,2.449-2.989c0.565-1.163,0.847-2.439,0.847-3.829
						c0-1.51-0.275-2.778-0.824-3.805c-0.549-1.026-1.289-1.857-2.22-2.491c-0.931-0.634-1.961-1.125-3.09-1.472
						c-1.129-0.348-2.441-0.657-3.936-0.929l-2.014-0.363c-1.221-0.211-2.266-0.43-3.136-0.656c-0.87-0.227-1.648-0.522-2.334-0.884
						c-0.687-0.362-1.229-0.831-1.625-1.405c-0.397-0.573-0.596-1.283-0.596-2.129c0-0.845,0.184-1.601,0.55-2.265
						c0.366-0.664,0.884-1.215,1.556-1.653c0.671-0.438,1.449-0.77,2.335-0.997c0.884-0.226,1.846-0.34,2.883-0.34
						c1.068,0,2.045,0.12,2.93,0.361c0.885,0.24,1.655,0.594,2.312,1.059c0.655,0.466,1.167,1.037,1.533,1.713
						c0.366,0.676,0.549,1.435,0.549,2.276h4.212c0-1.373-0.283-2.618-0.847-3.732c-0.565-1.114-1.358-2.06-2.38-2.839
						c-1.023-0.779-2.243-1.374-3.662-1.786c-1.419-0.412-2.969-0.618-4.647-0.618c-1.739,0-3.326,0.219-4.76,0.657
						c-1.435,0.438-2.663,1.065-3.685,1.88c-1.023,0.815-1.808,1.781-2.357,2.899c-0.55,1.117-0.824,2.326-0.824,3.624
						c0,1.48,0.289,2.726,0.869,3.738c0.58,1.012,1.366,1.827,2.358,2.446c0.991,0.619,2.067,1.095,3.227,1.427
						c1.159,0.332,2.517,0.635,4.074,0.906l2.014,0.362c1.098,0.182,2.06,0.393,2.884,0.635c0.824,0.242,1.556,0.551,2.197,0.928
						c0.641,0.378,1.144,0.854,1.51,1.427c0.367,0.574,0.55,1.268,0.55,2.084c0,0.906-0.176,1.722-0.527,2.446
						c-0.351,0.726-0.877,1.337-1.579,1.836c-0.702,0.498-1.549,0.875-2.54,1.132c-0.992,0.256-2.129,0.385-3.411,0.385
						c-1.22,0-2.319-0.151-3.295-0.451c-0.977-0.301-1.808-0.722-2.495-1.263c-0.687-0.541-1.206-1.172-1.556-1.893
						c-0.352-0.722-0.527-1.503-0.527-2.345H332.701z M283.447,118.957l-0.183-24.776h0.183l17.395,24.776h4.028V86.672h-4.212
						l0.184,24.964h-0.184l-17.394-24.964h-4.028v32.284H283.447z M213.046,106.756h-11.169l5.493-15.579h0.183L213.046,106.756z
						 M197.574,118.957l2.975-8.447h13.824l2.975,8.447h4.395l-11.719-32.284h-4.943l-11.719,32.284H197.574z M153.996,90.426
						c1.037,0,1.968,0.133,2.792,0.399c0.824,0.266,1.518,0.657,2.083,1.173c0.564,0.516,0.991,1.134,1.282,1.853
						c0.29,0.72,0.435,1.518,0.435,2.393c0,0.908-0.138,1.745-0.412,2.511c-0.275,0.767-0.695,1.439-1.259,2.018
						c-0.565,0.579-1.259,1.032-2.083,1.36c-0.824,0.329-1.77,0.493-2.838,0.493h-7.873v-12.2H153.996z M146.123,118.957V106.38
						h7.37l7.827,12.576h4.578l-8.011-13.092c1.129-0.312,2.121-0.766,2.975-1.361c0.854-0.594,1.58-1.306,2.175-2.135
						c0.595-0.828,1.037-1.76,1.327-2.792c0.29-1.032,0.435-2.142,0.435-3.332c0-1.501-0.237-2.846-0.709-4.035
						c-0.474-1.189-1.176-2.197-2.106-3.027c-0.931-0.828-2.083-1.454-3.456-1.877c-1.373-0.422-2.945-0.633-4.715-0.633h-11.901
						v32.284H146.123z M66.841,90.333v28.624h4.211V90.333h10.986v-3.66H55.854v3.66H66.841z"/>
				</g>
			</g>
			<g clip-path="url(#SVGID_4_)">
				<g>
					<defs>
						<rect id="SVGID_21_" x="-0.821" y="-0.479" width="556.269" height="35.395"/>
					</defs>
					<clipPath id="SVGID_22_">
						<use xlink:href="#SVGID_21_"  overflow="visible"/>
					</clipPath>
					<path clip-path="url(#SVGID_22_)" fill="#FFFFFF" d="M530.631,34.493l-0.184-24.776h0.184l17.395,24.776h4.027V2.208h-4.211
						l0.184,24.964h-0.184L530.447,2.208h-4.029v32.284H530.631z M503.166,2.208h-4.211v32.284h4.211V2.208z M332.701,25.021
						c0,1.404,0.266,2.692,0.801,3.867c0.533,1.175,1.319,2.181,2.357,3.02c1.037,0.839,2.312,1.487,3.822,1.945
						c1.511,0.457,3.212,0.686,5.104,0.686c1.953,0,3.7-0.227,5.241-0.68c1.541-0.453,2.846-1.095,3.914-1.925
						s1.884-1.827,2.449-2.989c0.564-1.163,0.847-2.439,0.847-3.829c0-1.51-0.275-2.778-0.824-3.805
						c-0.549-1.026-1.29-1.857-2.22-2.491c-0.931-0.634-1.961-1.125-3.09-1.472c-1.129-0.348-2.442-0.657-3.937-0.929l-2.014-0.363
						c-1.221-0.211-2.265-0.43-3.135-0.656c-0.87-0.227-1.648-0.522-2.335-0.884c-0.686-0.362-1.228-0.831-1.625-1.405
						c-0.397-0.573-0.595-1.283-0.595-2.129c0-0.845,0.183-1.601,0.55-2.265c0.366-0.664,0.884-1.215,1.556-1.653
						c0.671-0.438,1.449-0.77,2.334-0.997c0.885-0.226,1.846-0.34,2.884-0.34c1.068,0,2.044,0.12,2.93,0.361
						c0.885,0.24,1.655,0.594,2.311,1.059c0.656,0.466,1.168,1.037,1.534,1.713c0.366,0.676,0.549,1.435,0.549,2.276h4.211
						c0-1.373-0.282-2.618-0.846-3.732c-0.565-1.114-1.359-2.06-2.381-2.839s-2.243-1.374-3.662-1.786
						c-1.419-0.412-2.968-0.618-4.646-0.618c-1.739,0-3.326,0.219-4.76,0.657c-1.435,0.438-2.663,1.065-3.685,1.88
						c-1.023,0.815-1.808,1.781-2.358,2.899c-0.549,1.117-0.824,2.326-0.824,3.624c0,1.48,0.29,2.726,0.87,3.738
						c0.579,1.012,1.365,1.827,2.358,2.446c0.991,0.619,2.067,1.095,3.227,1.427c1.159,0.332,2.517,0.635,4.074,0.906l2.014,0.362
						c1.098,0.182,2.06,0.393,2.883,0.635c0.824,0.242,1.557,0.551,2.198,0.928c0.641,0.378,1.144,0.854,1.51,1.427
						c0.366,0.574,0.55,1.268,0.55,2.084c0,0.906-0.176,1.722-0.527,2.446c-0.351,0.725-0.877,1.337-1.579,1.836
						c-0.702,0.498-1.549,0.875-2.541,1.132c-0.992,0.256-2.128,0.385-3.41,0.385c-1.221,0-2.319-0.151-3.296-0.451
						c-0.977-0.301-1.808-0.722-2.494-1.263c-0.687-0.541-1.206-1.172-1.557-1.893c-0.351-0.722-0.526-1.503-0.526-2.345H332.701z
						 M268.066,34.493l-0.183-24.776h0.183l17.394,24.776h4.028V2.208h-4.211l0.183,24.964h-0.183L267.883,2.208h-4.028v32.284
						H268.066z M240.51,22.292h-11.169l5.493-15.579h0.183L240.51,22.292z M225.038,34.493l2.976-8.447h13.824l2.975,8.447h4.394
						L237.489,2.208h-4.944l-11.718,32.284H225.038z M163.517,34.493v-3.754h-17.394V19.945h13.549v-3.754h-13.549V5.962h17.028
						V2.208h-21.24v32.284H163.517z M84.968,18.389c0,2.329,0.366,4.492,1.098,6.487c0.733,1.997,1.77,3.713,3.113,5.15
						c1.342,1.437,2.937,2.548,4.783,3.334c1.846,0.787,3.853,1.18,6.02,1.18c1.8,0,3.463-0.252,4.989-0.755
						c1.526-0.503,2.876-1.211,4.051-2.126c1.175-0.914,2.136-2.012,2.884-3.292c0.747-1.28,1.289-2.698,1.625-4.253h-4.349
						c-0.305,1.051-0.709,1.982-1.213,2.792c-0.503,0.811-1.129,1.486-1.876,2.026c-0.748,0.541-1.633,0.953-2.655,1.239
						c-1.023,0.285-2.175,0.427-3.456,0.427c-1.557,0-2.984-0.3-4.28-0.9c-1.298-0.6-2.419-1.456-3.365-2.566
						c-0.946-1.111-1.678-2.417-2.197-3.918c-0.519-1.501-0.778-3.122-0.778-4.863c0-1.771,0.259-3.414,0.778-4.93
						c0.519-1.516,1.259-2.822,2.22-3.918c0.961-1.095,2.106-1.936,3.433-2.521c1.328-0.585,2.785-0.878,4.372-0.878
						c1.19,0,2.281,0.143,3.273,0.428c0.991,0.285,1.861,0.698,2.609,1.238c0.747,0.541,1.38,1.216,1.9,2.026
						c0.518,0.811,0.93,1.741,1.235,2.791h4.349c-0.336-1.554-0.87-2.972-1.602-4.252s-1.671-2.377-2.815-3.292
						c-1.145-0.915-2.472-1.624-3.983-2.127c-1.51-0.503-3.166-0.754-4.966-0.754c-2.228,0-4.273,0.403-6.134,1.208
						c-1.862,0.805-3.472,1.937-4.829,3.396c-1.358,1.459-2.403,3.183-3.136,5.173C85.334,13.93,84.968,16.079,84.968,18.389
						 M6.967,18.433c0-1.752,0.259-3.384,0.779-4.896c0.518-1.51,1.265-2.825,2.242-3.943c0.977-1.118,2.144-1.979,3.502-2.583
						c1.358-0.605,2.845-0.907,4.463-0.907c1.617,0,3.105,0.3,4.463,0.9s2.525,1.456,3.502,2.567
						c0.976,1.111,1.724,2.416,2.243,3.917c0.519,1.501,0.778,3.122,0.778,4.863c0,1.741-0.259,3.362-0.778,4.863
						c-0.519,1.501-1.267,2.807-2.243,3.918c-0.977,1.11-2.144,1.966-3.502,2.566c-1.358,0.6-2.846,0.9-4.463,0.9
						c-1.618,0-3.105-0.298-4.463-0.894c-1.358-0.596-2.525-1.446-3.502-2.55c-0.977-1.102-1.724-2.399-2.242-3.891
						C7.226,21.772,6.967,20.163,6.967,18.433 M2.573,18.433c0,2.293,0.366,4.427,1.099,6.402c0.732,1.976,1.785,3.688,3.158,5.136
						c1.373,1.447,3.005,2.571,4.898,3.37c1.892,0.799,3.967,1.199,6.225,1.199c2.228,0,4.287-0.401,6.18-1.205
						c1.892-0.803,3.525-1.933,4.898-3.388c1.373-1.455,2.433-3.175,3.181-5.161c0.748-1.985,1.122-4.131,1.122-6.435
						c0-2.304-0.374-4.449-1.122-6.435c-0.748-1.985-1.808-3.706-3.181-5.161s-3.006-2.584-4.898-3.388
						c-1.893-0.803-3.952-1.205-6.18-1.205c-2.258,0-4.333,0.404-6.225,1.211C9.835,4.181,8.203,5.315,6.83,6.777
						c-1.373,1.463-2.426,3.192-3.158,5.188C2.939,13.96,2.573,16.118,2.573,18.433"/>
				</g>
			</g>
			<g clip-path="url(#SVGID_4_)">
				<g>
					<defs>
						<rect id="SVGID_23_" x="-2.561" y="230.916" width="737.327" height="27.299"/>
					</defs>
					<clipPath id="SVGID_24_">
						<use xlink:href="#SVGID_23_"  overflow="visible"/>
					</clipPath>
					<path clip-path="url(#SVGID_24_)" fill="#FFFFFF" d="M722.857,257.803v-9.748l8.514-14.465h-3.295l-6.66,11.404h-0.139
						l-6.385-11.404h-3.57l8.377,14.711v9.502H722.857z M665.32,245.725c0,1.746,0.275,3.369,0.824,4.865
						c0.549,1.498,1.326,2.785,2.334,3.863s2.203,1.912,3.588,2.5c1.385,0.59,2.889,0.885,4.514,0.885
						c1.352,0,2.598-0.189,3.742-0.566s2.158-0.906,3.039-1.594c0.881-0.686,1.602-1.508,2.162-2.469
						c0.562-0.961,0.967-2.023,1.219-3.189h-3.26c-0.229,0.787-0.533,1.486-0.91,2.094c-0.379,0.607-0.848,1.113-1.408,1.52
						s-1.225,0.715-1.99,0.928c-0.768,0.215-1.633,0.322-2.594,0.322c-1.166,0-2.236-0.225-3.209-0.676
						c-0.973-0.449-1.814-1.092-2.523-1.924c-0.709-0.834-1.258-1.812-1.648-2.939c-0.389-1.125-0.584-2.342-0.584-3.648
						c0-1.326,0.195-2.559,0.584-3.695c0.391-1.139,0.945-2.117,1.666-2.939c0.721-0.82,1.578-1.451,2.574-1.891
						s2.088-0.658,3.279-0.658c0.893,0,1.711,0.107,2.455,0.32c0.742,0.215,1.395,0.523,1.957,0.93
						c0.561,0.404,1.033,0.912,1.424,1.52c0.389,0.607,0.699,1.305,0.928,2.094h3.26c-0.252-1.166-0.65-2.23-1.201-3.191
						c-0.549-0.959-1.254-1.781-2.111-2.469c-0.857-0.684-1.854-1.217-2.986-1.594s-2.375-0.566-3.725-0.566
						c-1.672,0-3.205,0.303-4.602,0.906c-1.395,0.604-2.604,1.453-3.621,2.547c-1.02,1.094-1.803,2.387-2.352,3.881
						C665.596,242.381,665.32,243.994,665.32,245.725 M629.617,257.803l-0.137-18.582h0.137l13.045,18.582h3.021V233.59h-3.158
						l0.137,18.723h-0.137L629.48,233.59h-3.021v24.213H629.617z M591.443,257.803v-2.816h-13.047v-8.094h10.162v-2.814h-10.162
						v-7.672h12.773v-2.816h-15.932v24.213H591.443z M546.951,257.803v-13.197h-10.299v2.816h7.416v0.703
						c0,1.057-0.201,2.006-0.602,2.85c-0.4,0.846-0.955,1.562-1.664,2.148c-0.711,0.586-1.518,1.025-2.42,1.318
						c-0.906,0.295-1.861,0.441-2.867,0.441c-1.191,0-2.295-0.225-3.314-0.676c-1.018-0.449-1.893-1.092-2.625-1.924
						c-0.732-0.834-1.299-1.812-1.701-2.939c-0.398-1.125-0.6-2.342-0.6-3.648c0-1.305,0.195-2.52,0.584-3.645
						c0.389-1.127,0.955-2.105,1.699-2.939s1.631-1.475,2.66-1.926c1.029-0.449,2.174-0.674,3.434-0.674
						c0.961,0,1.836,0.113,2.627,0.338c0.789,0.225,1.477,0.529,2.061,0.914c0.582,0.385,1.062,0.83,1.439,1.334
						c0.379,0.502,0.67,1.053,0.877,1.654h3.295c-0.252-1.023-0.67-1.971-1.252-2.85c-0.584-0.877-1.316-1.643-2.199-2.299
						c-0.881-0.654-1.898-1.16-3.055-1.516s-2.42-0.533-3.793-0.533c-1.695,0-3.262,0.301-4.703,0.904
						c-1.441,0.602-2.684,1.449-3.725,2.541c-1.043,1.092-1.842,2.381-2.404,3.871c-0.561,1.488-0.84,3.098-0.84,4.824
						c0,1.73,0.279,3.34,0.84,4.828c0.562,1.488,1.357,2.779,2.387,3.871c1.029,1.09,2.254,1.938,3.674,2.541
						c1.418,0.602,2.963,0.902,4.635,0.902c0.893,0,1.717-0.076,2.471-0.229c0.756-0.152,1.453-0.393,2.094-0.721
						c0.643-0.328,1.225-0.74,1.752-1.232c0.525-0.492,0.996-1.078,1.408-1.76h0.104l0.549,3.906H546.951z M493.877,248.652h-8.375
						l4.117-11.684h0.139L493.877,248.652z M482.273,257.803l2.232-6.334h10.367l2.232,6.334h3.295l-8.789-24.213h-3.707
						l-8.789,24.213H482.273z M424.876,257.803v-2.816H413.34V233.59h-3.158v24.213H424.876z M392.674,248.652h-8.377l4.12-11.684
						h0.137L392.674,248.652z M381.07,257.803l2.231-6.334h10.368l2.232,6.334h3.296l-8.789-24.213H386.7l-8.789,24.213H381.07z
						 M359.374,233.59h-3.158v24.213h3.158V233.59z M320.238,236.406c0.778,0,1.476,0.1,2.094,0.299s1.139,0.492,1.562,0.879
						c0.424,0.387,0.744,0.852,0.962,1.391c0.217,0.539,0.326,1.139,0.326,1.795c0,0.682-0.103,1.309-0.309,1.883
						s-0.521,1.08-0.944,1.514c-0.424,0.434-0.944,0.773-1.562,1.02c-0.618,0.246-1.328,0.371-2.129,0.371h-5.905v-9.15H320.238z
						 M314.333,257.803v-9.432h5.527l5.871,9.432h3.433l-6.008-9.818c0.847-0.234,1.591-0.574,2.232-1.021
						c0.64-0.445,1.184-0.979,1.63-1.602c0.447-0.619,0.778-1.318,0.996-2.094c0.217-0.773,0.326-1.605,0.326-2.498
						c0-1.127-0.177-2.135-0.532-3.025c-0.355-0.893-0.881-1.648-1.579-2.271c-0.699-0.621-1.562-1.09-2.592-1.408
						c-1.03-0.316-2.209-0.475-3.536-0.475h-8.926v24.213H314.333z M264.211,245.758c0-1.314,0.195-2.537,0.584-3.672
						c0.389-1.131,0.95-2.117,1.682-2.957c0.732-0.838,1.608-1.484,2.627-1.938c1.018-0.453,2.133-0.68,3.347-0.68
						c1.213,0,2.328,0.225,3.347,0.674c1.018,0.451,1.894,1.092,2.626,1.926c0.733,0.834,1.293,1.812,1.683,2.939
						c0.389,1.125,0.583,2.34,0.583,3.645c0,1.307-0.194,2.523-0.583,3.648c-0.39,1.127-0.95,2.105-1.683,2.939
						c-0.732,0.832-1.608,1.475-2.626,1.924c-1.019,0.451-2.134,0.676-3.347,0.676c-1.214,0-2.329-0.223-3.347-0.672
						c-1.019-0.447-1.895-1.084-2.627-1.912c-0.732-0.826-1.293-1.799-1.682-2.918C264.406,248.264,264.211,247.055,264.211,245.758
						 M260.916,245.758c0,1.721,0.274,3.32,0.824,4.803c0.549,1.482,1.338,2.766,2.368,3.852c1.03,1.086,2.254,1.928,3.674,2.527
						c1.419,0.6,2.975,0.898,4.669,0.898c1.67,0,3.215-0.301,4.635-0.902c1.418-0.604,2.643-1.451,3.673-2.541
						c1.03-1.092,1.825-2.383,2.386-3.871s0.841-3.098,0.841-4.828c0-1.727-0.28-3.336-0.841-4.824
						c-0.561-1.49-1.356-2.779-2.386-3.871c-1.03-1.092-2.255-1.939-3.673-2.541c-1.42-0.604-2.965-0.904-4.635-0.904
						c-1.694,0-3.25,0.303-4.669,0.908c-1.42,0.605-2.644,1.457-3.674,2.555c-1.03,1.098-1.819,2.395-2.368,3.891
						C261.19,242.404,260.916,244.021,260.916,245.758 M209.971,236.336v21.467h3.158v-21.467h8.24v-2.746h-19.638v2.746H209.971z
						 M168.226,233.59h-3.158v24.213h3.158V233.59z M144.195,236.406c0.778,0,1.477,0.1,2.095,0.299s1.138,0.492,1.562,0.879
						c0.423,0.387,0.743,0.852,0.961,1.391c0.217,0.539,0.326,1.139,0.326,1.795c0,0.682-0.103,1.309-0.309,1.883
						s-0.521,1.08-0.944,1.514c-0.424,0.434-0.944,0.773-1.562,1.02c-0.618,0.246-1.328,0.371-2.129,0.371h-5.905v-9.15H144.195z
						 M138.29,257.803v-9.432h5.528l5.87,9.432h3.434l-6.008-9.818c0.846-0.234,1.59-0.574,2.231-1.021
						c0.641-0.445,1.185-0.979,1.631-1.602c0.446-0.619,0.778-1.318,0.995-2.094c0.218-0.773,0.327-1.605,0.327-2.498
						c0-1.127-0.178-2.135-0.533-3.025c-0.355-0.893-0.881-1.648-1.579-2.271c-0.698-0.621-1.562-1.09-2.592-1.408
						c-1.03-0.316-2.209-0.475-3.536-0.475h-8.926v24.213H138.29z M91.602,236.406c0.778,0,1.477,0.1,2.095,0.299
						c0.618,0.199,1.138,0.492,1.562,0.879c0.423,0.387,0.743,0.852,0.961,1.391c0.217,0.539,0.326,1.139,0.326,1.795
						c0,0.682-0.103,1.309-0.309,1.883s-0.521,1.08-0.944,1.514c-0.424,0.434-0.944,0.773-1.562,1.02s-1.328,0.371-2.129,0.371
						h-5.905v-9.15H91.602z M85.697,257.803v-9.432h5.528l5.87,9.432h3.433l-6.007-9.818c0.846-0.234,1.59-0.574,2.231-1.021
						c0.641-0.445,1.184-0.979,1.631-1.602c0.446-0.619,0.778-1.318,0.995-2.094c0.218-0.773,0.327-1.605,0.327-2.498
						c0-1.127-0.178-2.135-0.533-3.025c-0.355-0.893-0.881-1.648-1.579-2.271c-0.698-0.621-1.562-1.09-2.592-1.408
						c-1.03-0.316-2.209-0.475-3.536-0.475h-8.926v24.213H85.697z M55.076,257.803v-2.816H42.03v-8.094h10.162v-2.814H42.03v-7.672
						h12.771v-2.816h-15.93v24.213H55.076z M9.073,236.336v21.467h3.158v-21.467h8.24v-2.746H0.834v2.746H9.073z"/>
				</g>
			</g>
			<g clip-path="url(#SVGID_4_)">
				<g>
					<defs>
						<rect id="SVGID_25_" x="52.46" y="83.985" width="805.102" height="35.395"/>
					</defs>
					<clipPath id="SVGID_26_">
						<use xlink:href="#SVGID_25_"  overflow="visible"/>
					</clipPath>
					<path clip-path="url(#SVGID_26_)" fill="#FFFFFF" d="M832.744,118.957l-0.184-24.776h0.184l17.395,24.776h4.027V86.672h-4.211
						l0.184,24.964h-0.184l-17.395-24.964h-4.027v32.284H832.744z M748.52,102.896c0-1.752,0.258-3.384,0.777-4.896
						c0.52-1.51,1.266-2.825,2.242-3.943c0.977-1.118,2.145-1.979,3.502-2.583c1.357-0.605,2.846-0.907,4.463-0.907
						s3.105,0.3,4.463,0.9s2.525,1.456,3.504,2.567c0.975,1.111,1.723,2.416,2.242,3.917c0.518,1.501,0.777,3.122,0.777,4.863
						c0,1.741-0.26,3.362-0.777,4.863c-0.52,1.501-1.268,2.807-2.242,3.918c-0.979,1.11-2.146,1.966-3.504,2.566
						c-1.357,0.6-2.846,0.9-4.463,0.9s-3.105-0.298-4.463-0.894c-1.357-0.596-2.525-1.446-3.502-2.55
						c-0.977-1.102-1.723-2.399-2.242-3.891C748.777,106.236,748.52,104.626,748.52,102.896 M744.125,102.896
						c0,2.293,0.365,4.427,1.098,6.402c0.732,1.976,1.785,3.688,3.158,5.136c1.373,1.447,3.006,2.571,4.898,3.37
						c1.891,0.799,3.967,1.199,6.225,1.199c2.229,0,4.287-0.401,6.182-1.205c1.891-0.803,3.523-1.933,4.896-3.388
						c1.373-1.455,2.434-3.175,3.182-5.161c0.746-1.985,1.121-4.131,1.121-6.435c0-2.304-0.375-4.449-1.121-6.435
						c-0.748-1.985-1.809-3.706-3.182-5.161s-3.006-2.584-4.896-3.388c-1.895-0.803-3.953-1.205-6.182-1.205
						c-2.258,0-4.334,0.404-6.225,1.211c-1.893,0.808-3.525,1.943-4.898,3.405c-1.373,1.463-2.426,3.192-3.158,5.187
						C744.49,98.424,744.125,100.582,744.125,102.896 M722.885,86.672h-4.211v32.284h4.211V86.672z M665.756,90.333v28.624h4.211
						V90.333h10.986v-3.66h-26.182v3.66H665.756z M625.02,106.756h-11.17l5.492-15.579h0.184L625.02,106.756z M609.547,118.957
						l2.975-8.447h13.824l2.975,8.447h4.395l-11.719-32.284h-4.941l-11.721,32.284H609.547z M558.096,118.957l-0.365-24.964h0.182
						l10.986,24.964h3.297l10.984-25.527h0.184l-0.367,25.527h4.213V86.672h-5.127l-11.398,26.465h-0.092L559.01,86.672h-5.125
						v32.284H558.096z M511.039,90.426c1.037,0,1.969,0.133,2.793,0.399c0.824,0.266,1.518,0.657,2.082,1.173
						c0.564,0.516,0.992,1.134,1.281,1.853c0.291,0.72,0.436,1.518,0.436,2.393c0,0.908-0.137,1.745-0.412,2.511
						c-0.275,0.767-0.695,1.439-1.26,2.018s-1.258,1.032-2.082,1.36c-0.822,0.329-1.77,0.493-2.838,0.493h-7.873v-12.2H511.039z
						 M503.166,118.957V106.38h7.369l7.828,12.576h4.578l-8.012-13.092c1.129-0.312,2.121-0.766,2.977-1.361
						c0.854-0.594,1.578-1.306,2.174-2.135c0.594-0.828,1.037-1.76,1.326-2.792c0.291-1.032,0.436-2.142,0.436-3.332
						c0-1.501-0.236-2.846-0.709-4.035c-0.475-1.189-1.176-2.197-2.105-3.027c-0.932-0.828-2.084-1.454-3.457-1.877
						c-1.373-0.422-2.945-0.633-4.715-0.633h-11.9v32.284H503.166z M446.404,102.896c0-1.752,0.26-3.384,0.779-4.896
						c0.518-1.51,1.266-2.825,2.242-3.943c0.977-1.118,2.145-1.979,3.502-2.583c1.357-0.605,2.846-0.907,4.463-0.907
						s3.105,0.3,4.463,0.9s2.525,1.456,3.502,2.567c0.977,1.111,1.725,2.416,2.244,3.917c0.518,1.501,0.777,3.122,0.777,4.863
						c0,1.741-0.26,3.362-0.777,4.863c-0.52,1.501-1.268,2.807-2.244,3.918c-0.977,1.11-2.145,1.966-3.502,2.566
						c-1.357,0.6-2.846,0.9-4.463,0.9s-3.105-0.298-4.463-0.894c-1.357-0.596-2.525-1.446-3.502-2.55
						c-0.977-1.102-1.725-2.399-2.242-3.891C446.664,106.236,446.404,104.626,446.404,102.896 M442.01,102.896
						c0,2.293,0.367,4.427,1.1,6.402c0.732,1.976,1.785,3.688,3.158,5.136c1.373,1.447,3.006,2.571,4.898,3.37
						c1.893,0.799,3.967,1.199,6.225,1.199c2.229,0,4.287-0.401,6.18-1.205c1.893-0.803,3.525-1.933,4.898-3.388
						c1.373-1.455,2.434-3.175,3.182-5.161c0.748-1.985,1.121-4.131,1.121-6.435c0-2.304-0.373-4.449-1.121-6.435
						c-0.748-1.985-1.809-3.706-3.182-5.161s-3.006-2.584-4.898-3.388c-1.893-0.803-3.951-1.205-6.18-1.205
						c-2.258,0-4.332,0.404-6.225,1.211c-1.893,0.808-3.525,1.943-4.898,3.405c-1.373,1.463-2.426,3.192-3.158,5.187
						C442.377,98.424,442.01,100.582,442.01,102.896 M388.178,118.957v-13.514h13.184v-3.754h-13.184V90.426h16.662v-3.754h-20.873
						v32.284H388.178z M332.701,109.485c0,1.404,0.267,2.692,0.801,3.867c0.534,1.175,1.32,2.181,2.357,3.02
						c1.037,0.839,2.312,1.487,3.823,1.945c1.51,0.457,3.211,0.686,5.103,0.686c1.953,0,3.7-0.227,5.242-0.68
						c1.54-0.453,2.845-1.095,3.913-1.925c1.068-0.83,1.884-1.827,2.449-2.989c0.565-1.163,0.847-2.439,0.847-3.829
						c0-1.51-0.275-2.778-0.824-3.805c-0.549-1.026-1.289-1.857-2.22-2.491c-0.931-0.634-1.961-1.125-3.09-1.472
						c-1.129-0.348-2.441-0.657-3.936-0.929l-2.014-0.363c-1.221-0.211-2.266-0.43-3.136-0.656c-0.87-0.227-1.648-0.522-2.334-0.884
						c-0.687-0.362-1.229-0.831-1.625-1.405c-0.397-0.573-0.596-1.283-0.596-2.129c0-0.845,0.184-1.601,0.55-2.265
						c0.366-0.664,0.884-1.215,1.556-1.653c0.671-0.438,1.449-0.77,2.335-0.997c0.884-0.226,1.846-0.34,2.883-0.34
						c1.068,0,2.045,0.12,2.93,0.361c0.885,0.24,1.655,0.594,2.312,1.059c0.655,0.466,1.167,1.037,1.533,1.713
						c0.366,0.676,0.549,1.435,0.549,2.276h4.212c0-1.373-0.283-2.618-0.847-3.732c-0.565-1.114-1.358-2.06-2.38-2.839
						c-1.023-0.779-2.243-1.374-3.662-1.786c-1.419-0.412-2.969-0.618-4.647-0.618c-1.739,0-3.326,0.219-4.76,0.657
						c-1.435,0.438-2.663,1.065-3.685,1.88c-1.023,0.815-1.808,1.781-2.357,2.899c-0.55,1.117-0.824,2.326-0.824,3.624
						c0,1.48,0.289,2.726,0.869,3.738c0.58,1.012,1.366,1.827,2.358,2.446c0.991,0.619,2.067,1.095,3.227,1.427
						c1.159,0.332,2.517,0.635,4.074,0.906l2.014,0.362c1.098,0.182,2.06,0.393,2.884,0.635c0.824,0.242,1.556,0.551,2.197,0.928
						c0.641,0.378,1.144,0.854,1.51,1.427c0.367,0.574,0.55,1.268,0.55,2.084c0,0.906-0.176,1.722-0.527,2.446
						c-0.351,0.726-0.877,1.337-1.579,1.836c-0.702,0.498-1.549,0.875-2.54,1.132c-0.992,0.256-2.129,0.385-3.411,0.385
						c-1.22,0-2.319-0.151-3.295-0.451c-0.977-0.301-1.808-0.722-2.495-1.263c-0.687-0.541-1.206-1.172-1.556-1.893
						c-0.352-0.722-0.527-1.503-0.527-2.345H332.701z M283.447,118.957l-0.183-24.776h0.183l17.395,24.776h4.028V86.672h-4.212
						l0.184,24.964h-0.184l-17.394-24.964h-4.028v32.284H283.447z M213.046,106.756h-11.169l5.493-15.579h0.183L213.046,106.756z
						 M197.574,118.957l2.975-8.447h13.824l2.975,8.447h4.395l-11.719-32.284h-4.943l-11.719,32.284H197.574z M153.996,90.426
						c1.037,0,1.968,0.133,2.792,0.399c0.824,0.266,1.518,0.657,2.083,1.173c0.564,0.516,0.991,1.134,1.282,1.853
						c0.29,0.72,0.435,1.518,0.435,2.393c0,0.908-0.138,1.745-0.412,2.511c-0.275,0.767-0.695,1.439-1.259,2.018
						c-0.565,0.579-1.259,1.032-2.083,1.36c-0.824,0.329-1.77,0.493-2.838,0.493h-7.873v-12.2H153.996z M146.123,118.957V106.38
						h7.37l7.827,12.576h4.578l-8.011-13.092c1.129-0.312,2.121-0.766,2.975-1.361c0.854-0.594,1.58-1.306,2.175-2.135
						c0.595-0.828,1.037-1.76,1.327-2.792c0.29-1.032,0.435-2.142,0.435-3.332c0-1.501-0.237-2.846-0.709-4.035
						c-0.474-1.189-1.176-2.197-2.106-3.027c-0.931-0.828-2.083-1.454-3.456-1.877c-1.373-0.422-2.945-0.633-4.715-0.633h-11.901
						v32.284H146.123z M66.841,90.333v28.624h4.211V90.333h10.986v-3.66H55.854v3.66H66.841z"/>
				</g>
			</g>
			<g clip-path="url(#SVGID_4_)">
				<g>
					<defs>
						<rect id="SVGID_27_" x="-0.821" y="-0.479" width="556.269" height="35.395"/>
					</defs>
					<clipPath id="SVGID_28_">
						<use xlink:href="#SVGID_27_"  overflow="visible"/>
					</clipPath>
					<path clip-path="url(#SVGID_28_)" fill="#FFFFFF" d="M530.631,34.493l-0.184-24.776h0.184l17.395,24.776h4.027V2.208h-4.211
						l0.184,24.964h-0.184L530.447,2.208h-4.029v32.284H530.631z M503.166,2.208h-4.211v32.284h4.211V2.208z M332.701,25.021
						c0,1.404,0.266,2.692,0.801,3.867c0.533,1.175,1.319,2.181,2.357,3.02c1.037,0.839,2.312,1.487,3.822,1.945
						c1.511,0.457,3.212,0.686,5.104,0.686c1.953,0,3.7-0.227,5.241-0.68c1.541-0.453,2.846-1.095,3.914-1.925
						s1.884-1.827,2.449-2.989c0.564-1.163,0.847-2.439,0.847-3.829c0-1.51-0.275-2.778-0.824-3.805
						c-0.549-1.026-1.29-1.857-2.22-2.491c-0.931-0.634-1.961-1.125-3.09-1.472c-1.129-0.348-2.442-0.657-3.937-0.929l-2.014-0.363
						c-1.221-0.211-2.265-0.43-3.135-0.656c-0.87-0.227-1.648-0.522-2.335-0.884c-0.686-0.362-1.228-0.831-1.625-1.405
						c-0.397-0.573-0.595-1.283-0.595-2.129c0-0.845,0.183-1.601,0.55-2.265c0.366-0.664,0.884-1.215,1.556-1.653
						c0.671-0.438,1.449-0.77,2.334-0.997c0.885-0.226,1.846-0.34,2.884-0.34c1.068,0,2.044,0.12,2.93,0.361
						c0.885,0.24,1.655,0.594,2.311,1.059c0.656,0.466,1.168,1.037,1.534,1.713c0.366,0.676,0.549,1.435,0.549,2.276h4.211
						c0-1.373-0.282-2.618-0.846-3.732c-0.565-1.114-1.359-2.06-2.381-2.839s-2.243-1.374-3.662-1.786
						c-1.419-0.412-2.968-0.618-4.646-0.618c-1.739,0-3.326,0.219-4.76,0.657c-1.435,0.438-2.663,1.065-3.685,1.88
						c-1.023,0.815-1.808,1.781-2.358,2.899c-0.549,1.117-0.824,2.326-0.824,3.624c0,1.48,0.29,2.726,0.87,3.738
						c0.579,1.012,1.365,1.827,2.358,2.446c0.991,0.619,2.067,1.095,3.227,1.427c1.159,0.332,2.517,0.635,4.074,0.906l2.014,0.362
						c1.098,0.182,2.06,0.393,2.883,0.635c0.824,0.242,1.557,0.551,2.198,0.928c0.641,0.378,1.144,0.854,1.51,1.427
						c0.366,0.574,0.55,1.268,0.55,2.084c0,0.906-0.176,1.722-0.527,2.446c-0.351,0.725-0.877,1.337-1.579,1.836
						c-0.702,0.498-1.549,0.875-2.541,1.132c-0.992,0.256-2.128,0.385-3.41,0.385c-1.221,0-2.319-0.151-3.296-0.451
						c-0.977-0.301-1.808-0.722-2.494-1.263c-0.687-0.541-1.206-1.172-1.557-1.893c-0.351-0.722-0.526-1.503-0.526-2.345H332.701z
						 M268.066,34.493l-0.183-24.776h0.183l17.394,24.776h4.028V2.208h-4.211l0.183,24.964h-0.183L267.883,2.208h-4.028v32.284
						H268.066z M240.51,22.292h-11.169l5.493-15.579h0.183L240.51,22.292z M225.038,34.493l2.976-8.447h13.824l2.975,8.447h4.394
						L237.489,2.208h-4.944l-11.718,32.284H225.038z M163.517,34.493v-3.754h-17.394V19.945h13.549v-3.754h-13.549V5.962h17.028
						V2.208h-21.24v32.284H163.517z M84.968,18.389c0,2.329,0.366,4.492,1.098,6.487c0.733,1.997,1.77,3.713,3.113,5.15
						c1.342,1.437,2.937,2.548,4.783,3.334c1.846,0.787,3.853,1.18,6.02,1.18c1.8,0,3.463-0.252,4.989-0.755
						c1.526-0.503,2.876-1.211,4.051-2.126c1.175-0.914,2.136-2.012,2.884-3.292c0.747-1.28,1.289-2.698,1.625-4.253h-4.349
						c-0.305,1.051-0.709,1.982-1.213,2.792c-0.503,0.811-1.129,1.486-1.876,2.026c-0.748,0.541-1.633,0.953-2.655,1.239
						c-1.023,0.285-2.175,0.427-3.456,0.427c-1.557,0-2.984-0.3-4.28-0.9c-1.298-0.6-2.419-1.456-3.365-2.566
						c-0.946-1.111-1.678-2.417-2.197-3.918c-0.519-1.501-0.778-3.122-0.778-4.863c0-1.771,0.259-3.414,0.778-4.93
						c0.519-1.516,1.259-2.822,2.22-3.918c0.961-1.095,2.106-1.936,3.433-2.521c1.328-0.585,2.785-0.878,4.372-0.878
						c1.19,0,2.281,0.143,3.273,0.428c0.991,0.285,1.861,0.698,2.609,1.238c0.747,0.541,1.38,1.216,1.9,2.026
						c0.518,0.811,0.93,1.741,1.235,2.791h4.349c-0.336-1.554-0.87-2.972-1.602-4.252s-1.671-2.377-2.815-3.292
						c-1.145-0.915-2.472-1.624-3.983-2.127c-1.51-0.503-3.166-0.754-4.966-0.754c-2.228,0-4.273,0.403-6.134,1.208
						c-1.862,0.805-3.472,1.937-4.829,3.396c-1.358,1.459-2.403,3.183-3.136,5.173C85.334,13.93,84.968,16.079,84.968,18.389
						 M6.967,18.433c0-1.752,0.259-3.384,0.779-4.896c0.518-1.51,1.265-2.825,2.242-3.943c0.977-1.118,2.144-1.979,3.502-2.583
						c1.358-0.605,2.845-0.907,4.463-0.907c1.617,0,3.105,0.3,4.463,0.9s2.525,1.456,3.502,2.567
						c0.976,1.111,1.724,2.416,2.243,3.917c0.519,1.501,0.778,3.122,0.778,4.863c0,1.741-0.259,3.362-0.778,4.863
						c-0.519,1.501-1.267,2.807-2.243,3.918c-0.977,1.11-2.144,1.966-3.502,2.566c-1.358,0.6-2.846,0.9-4.463,0.9
						c-1.618,0-3.105-0.298-4.463-0.894c-1.358-0.596-2.525-1.446-3.502-2.55c-0.977-1.102-1.724-2.399-2.242-3.891
						C7.226,21.772,6.967,20.163,6.967,18.433 M2.573,18.433c0,2.293,0.366,4.427,1.099,6.402c0.732,1.976,1.785,3.688,3.158,5.136
						c1.373,1.447,3.005,2.571,4.898,3.37c1.892,0.799,3.967,1.199,6.225,1.199c2.228,0,4.287-0.401,6.18-1.205
						c1.892-0.803,3.525-1.933,4.898-3.388c1.373-1.455,2.433-3.175,3.181-5.161c0.748-1.985,1.122-4.131,1.122-6.435
						c0-2.304-0.374-4.449-1.122-6.435c-0.748-1.985-1.808-3.706-3.181-5.161s-3.006-2.584-4.898-3.388
						c-1.893-0.803-3.952-1.205-6.18-1.205c-2.258,0-4.333,0.404-6.225,1.211C9.835,4.181,8.203,5.315,6.83,6.777
						c-1.373,1.463-2.426,3.192-3.158,5.188C2.939,13.96,2.573,16.118,2.573,18.433"/>
				</g>
			</g>
			<g opacity="0.5" clip-path="url(#SVGID_4_)">
				<g>
					<defs>
						<rect id="SVGID_29_" x="-2.561" y="230.916" width="737.327" height="27.299"/>
					</defs>
					<clipPath id="SVGID_30_">
						<use xlink:href="#SVGID_29_"  overflow="visible"/>
					</clipPath>
					<path clip-path="url(#SVGID_30_)" fill="#FFFFFF" d="M722.857,257.803v-9.748l8.514-14.465h-3.295l-6.66,11.404h-0.139
						l-6.385-11.404h-3.57l8.377,14.711v9.502H722.857z M665.32,245.725c0,1.746,0.275,3.369,0.824,4.865
						c0.549,1.498,1.326,2.785,2.334,3.863s2.203,1.912,3.588,2.5c1.385,0.59,2.889,0.885,4.514,0.885
						c1.352,0,2.598-0.189,3.742-0.566s2.158-0.906,3.039-1.594c0.881-0.686,1.602-1.508,2.162-2.469
						c0.562-0.961,0.967-2.023,1.219-3.189h-3.26c-0.229,0.787-0.533,1.486-0.91,2.094c-0.379,0.607-0.848,1.113-1.408,1.52
						s-1.225,0.715-1.99,0.928c-0.768,0.215-1.633,0.322-2.594,0.322c-1.166,0-2.236-0.225-3.209-0.676
						c-0.973-0.449-1.814-1.092-2.523-1.924c-0.709-0.834-1.258-1.812-1.648-2.939c-0.389-1.125-0.584-2.342-0.584-3.648
						c0-1.326,0.195-2.559,0.584-3.695c0.391-1.139,0.945-2.117,1.666-2.939c0.721-0.82,1.578-1.451,2.574-1.891
						s2.088-0.658,3.279-0.658c0.893,0,1.711,0.107,2.455,0.32c0.742,0.215,1.395,0.523,1.957,0.93
						c0.561,0.404,1.033,0.912,1.424,1.52c0.389,0.607,0.699,1.305,0.928,2.094h3.26c-0.252-1.166-0.65-2.23-1.201-3.191
						c-0.549-0.959-1.254-1.781-2.111-2.469c-0.857-0.684-1.854-1.217-2.986-1.594s-2.375-0.566-3.725-0.566
						c-1.672,0-3.205,0.303-4.602,0.906c-1.395,0.604-2.604,1.453-3.621,2.547c-1.02,1.094-1.803,2.387-2.352,3.881
						C665.596,242.381,665.32,243.994,665.32,245.725 M629.617,257.803l-0.137-18.582h0.137l13.045,18.582h3.021V233.59h-3.158
						l0.137,18.723h-0.137L629.48,233.59h-3.021v24.213H629.617z M591.443,257.803v-2.816h-13.047v-8.094h10.162v-2.814h-10.162
						v-7.672h12.773v-2.816h-15.932v24.213H591.443z M546.951,257.803v-13.197h-10.299v2.816h7.416v0.703
						c0,1.057-0.201,2.006-0.602,2.85c-0.4,0.846-0.955,1.562-1.664,2.148c-0.711,0.586-1.518,1.025-2.42,1.318
						c-0.906,0.295-1.861,0.441-2.867,0.441c-1.191,0-2.295-0.225-3.314-0.676c-1.018-0.449-1.893-1.092-2.625-1.924
						c-0.732-0.834-1.299-1.812-1.701-2.939c-0.398-1.125-0.6-2.342-0.6-3.648c0-1.305,0.195-2.52,0.584-3.645
						c0.389-1.127,0.955-2.105,1.699-2.939s1.631-1.475,2.66-1.926c1.029-0.449,2.174-0.674,3.434-0.674
						c0.961,0,1.836,0.113,2.627,0.338c0.789,0.225,1.477,0.529,2.061,0.914c0.582,0.385,1.062,0.83,1.439,1.334
						c0.379,0.502,0.67,1.053,0.877,1.654h3.295c-0.252-1.023-0.67-1.971-1.252-2.85c-0.584-0.877-1.316-1.643-2.199-2.299
						c-0.881-0.654-1.898-1.16-3.055-1.516s-2.42-0.533-3.793-0.533c-1.695,0-3.262,0.301-4.703,0.904
						c-1.441,0.602-2.684,1.449-3.725,2.541c-1.043,1.092-1.842,2.381-2.404,3.871c-0.561,1.488-0.84,3.098-0.84,4.824
						c0,1.73,0.279,3.34,0.84,4.828c0.562,1.488,1.357,2.779,2.387,3.871c1.029,1.09,2.254,1.938,3.674,2.541
						c1.418,0.602,2.963,0.902,4.635,0.902c0.893,0,1.717-0.076,2.471-0.229c0.756-0.152,1.453-0.393,2.094-0.721
						c0.643-0.328,1.225-0.74,1.752-1.232c0.525-0.492,0.996-1.078,1.408-1.76h0.104l0.549,3.906H546.951z M493.877,248.652h-8.375
						l4.117-11.684h0.139L493.877,248.652z M482.273,257.803l2.232-6.334h10.367l2.232,6.334h3.295l-8.789-24.213h-3.707
						l-8.789,24.213H482.273z M424.876,257.803v-2.816H413.34V233.59h-3.158v24.213H424.876z M392.674,248.652h-8.377l4.12-11.684
						h0.137L392.674,248.652z M381.07,257.803l2.231-6.334h10.368l2.232,6.334h3.296l-8.789-24.213H386.7l-8.789,24.213H381.07z
						 M359.374,233.59h-3.158v24.213h3.158V233.59z M320.238,236.406c0.778,0,1.476,0.1,2.094,0.299s1.139,0.492,1.562,0.879
						c0.424,0.387,0.744,0.852,0.962,1.391c0.217,0.539,0.326,1.139,0.326,1.795c0,0.682-0.103,1.309-0.309,1.883
						s-0.521,1.08-0.944,1.514c-0.424,0.434-0.944,0.773-1.562,1.02c-0.618,0.246-1.328,0.371-2.129,0.371h-5.905v-9.15H320.238z
						 M314.333,257.803v-9.432h5.527l5.871,9.432h3.433l-6.008-9.818c0.847-0.234,1.591-0.574,2.232-1.021
						c0.64-0.445,1.184-0.979,1.63-1.602c0.447-0.619,0.778-1.318,0.996-2.094c0.217-0.773,0.326-1.605,0.326-2.498
						c0-1.127-0.177-2.135-0.532-3.025c-0.355-0.893-0.881-1.648-1.579-2.271c-0.699-0.621-1.562-1.09-2.592-1.408
						c-1.03-0.316-2.209-0.475-3.536-0.475h-8.926v24.213H314.333z M264.211,245.758c0-1.314,0.195-2.537,0.584-3.672
						c0.389-1.131,0.95-2.117,1.682-2.957c0.732-0.838,1.608-1.484,2.627-1.938c1.018-0.453,2.133-0.68,3.347-0.68
						c1.213,0,2.328,0.225,3.347,0.674c1.018,0.451,1.894,1.092,2.626,1.926c0.733,0.834,1.293,1.812,1.683,2.939
						c0.389,1.125,0.583,2.34,0.583,3.645c0,1.307-0.194,2.523-0.583,3.648c-0.39,1.127-0.95,2.105-1.683,2.939
						c-0.732,0.832-1.608,1.475-2.626,1.924c-1.019,0.451-2.134,0.676-3.347,0.676c-1.214,0-2.329-0.223-3.347-0.672
						c-1.019-0.447-1.895-1.084-2.627-1.912c-0.732-0.826-1.293-1.799-1.682-2.918C264.406,248.264,264.211,247.055,264.211,245.758
						 M260.916,245.758c0,1.721,0.274,3.32,0.824,4.803c0.549,1.482,1.338,2.766,2.368,3.852c1.03,1.086,2.254,1.928,3.674,2.527
						c1.419,0.6,2.975,0.898,4.669,0.898c1.67,0,3.215-0.301,4.635-0.902c1.418-0.604,2.643-1.451,3.673-2.541
						c1.03-1.092,1.825-2.383,2.386-3.871s0.841-3.098,0.841-4.828c0-1.727-0.28-3.336-0.841-4.824
						c-0.561-1.49-1.356-2.779-2.386-3.871c-1.03-1.092-2.255-1.939-3.673-2.541c-1.42-0.604-2.965-0.904-4.635-0.904
						c-1.694,0-3.25,0.303-4.669,0.908c-1.42,0.605-2.644,1.457-3.674,2.555c-1.03,1.098-1.819,2.395-2.368,3.891
						C261.19,242.404,260.916,244.021,260.916,245.758 M209.971,236.336v21.467h3.158v-21.467h8.24v-2.746h-19.638v2.746H209.971z
						 M168.226,233.59h-3.158v24.213h3.158V233.59z M144.195,236.406c0.778,0,1.477,0.1,2.095,0.299s1.138,0.492,1.562,0.879
						c0.423,0.387,0.743,0.852,0.961,1.391c0.217,0.539,0.326,1.139,0.326,1.795c0,0.682-0.103,1.309-0.309,1.883
						s-0.521,1.08-0.944,1.514c-0.424,0.434-0.944,0.773-1.562,1.02c-0.618,0.246-1.328,0.371-2.129,0.371h-5.905v-9.15H144.195z
						 M138.29,257.803v-9.432h5.528l5.87,9.432h3.434l-6.008-9.818c0.846-0.234,1.59-0.574,2.231-1.021
						c0.641-0.445,1.185-0.979,1.631-1.602c0.446-0.619,0.778-1.318,0.995-2.094c0.218-0.773,0.327-1.605,0.327-2.498
						c0-1.127-0.178-2.135-0.533-3.025c-0.355-0.893-0.881-1.648-1.579-2.271c-0.698-0.621-1.562-1.09-2.592-1.408
						c-1.03-0.316-2.209-0.475-3.536-0.475h-8.926v24.213H138.29z M91.602,236.406c0.778,0,1.477,0.1,2.095,0.299
						c0.618,0.199,1.138,0.492,1.562,0.879c0.423,0.387,0.743,0.852,0.961,1.391c0.217,0.539,0.326,1.139,0.326,1.795
						c0,0.682-0.103,1.309-0.309,1.883s-0.521,1.08-0.944,1.514c-0.424,0.434-0.944,0.773-1.562,1.02s-1.328,0.371-2.129,0.371
						h-5.905v-9.15H91.602z M85.697,257.803v-9.432h5.528l5.87,9.432h3.433l-6.007-9.818c0.846-0.234,1.59-0.574,2.231-1.021
						c0.641-0.445,1.184-0.979,1.631-1.602c0.446-0.619,0.778-1.318,0.995-2.094c0.218-0.773,0.327-1.605,0.327-2.498
						c0-1.127-0.178-2.135-0.533-3.025c-0.355-0.893-0.881-1.648-1.579-2.271c-0.698-0.621-1.562-1.09-2.592-1.408
						c-1.03-0.316-2.209-0.475-3.536-0.475h-8.926v24.213H85.697z M55.076,257.803v-2.816H42.03v-8.094h10.162v-2.814H42.03v-7.672
						h12.771v-2.816h-15.93v24.213H55.076z M9.073,236.336v21.467h3.158v-21.467h8.24v-2.746H0.834v2.746H9.073z"/>
				</g>
			</g>
			<g opacity="0.5" clip-path="url(#SVGID_4_)">
				<g>
					<defs>
						<rect id="SVGID_31_" x="52.46" y="83.985" width="805.102" height="35.395"/>
					</defs>
					<clipPath id="SVGID_32_">
						<use xlink:href="#SVGID_31_"  overflow="visible"/>
					</clipPath>
					<path clip-path="url(#SVGID_32_)" fill="#FFFFFF" d="M832.744,118.957l-0.184-24.776h0.184l17.395,24.776h4.027V86.672h-4.211
						l0.184,24.964h-0.184l-17.395-24.964h-4.027v32.284H832.744z M748.52,102.896c0-1.752,0.258-3.384,0.777-4.896
						c0.52-1.51,1.266-2.825,2.242-3.943c0.977-1.118,2.145-1.979,3.502-2.583c1.357-0.605,2.846-0.907,4.463-0.907
						s3.105,0.3,4.463,0.9s2.525,1.456,3.504,2.567c0.975,1.111,1.723,2.416,2.242,3.917c0.518,1.501,0.777,3.122,0.777,4.863
						c0,1.741-0.26,3.362-0.777,4.863c-0.52,1.501-1.268,2.807-2.242,3.918c-0.979,1.11-2.146,1.966-3.504,2.566
						c-1.357,0.6-2.846,0.9-4.463,0.9s-3.105-0.298-4.463-0.894c-1.357-0.596-2.525-1.446-3.502-2.55
						c-0.977-1.102-1.723-2.399-2.242-3.891C748.777,106.236,748.52,104.626,748.52,102.896 M744.125,102.896
						c0,2.293,0.365,4.427,1.098,6.402c0.732,1.976,1.785,3.688,3.158,5.136c1.373,1.447,3.006,2.571,4.898,3.37
						c1.891,0.799,3.967,1.199,6.225,1.199c2.229,0,4.287-0.401,6.182-1.205c1.891-0.803,3.523-1.933,4.896-3.388
						c1.373-1.455,2.434-3.175,3.182-5.161c0.746-1.985,1.121-4.131,1.121-6.435c0-2.304-0.375-4.449-1.121-6.435
						c-0.748-1.985-1.809-3.706-3.182-5.161s-3.006-2.584-4.896-3.388c-1.895-0.803-3.953-1.205-6.182-1.205
						c-2.258,0-4.334,0.404-6.225,1.211c-1.893,0.808-3.525,1.943-4.898,3.405c-1.373,1.463-2.426,3.192-3.158,5.187
						C744.49,98.424,744.125,100.582,744.125,102.896 M722.885,86.672h-4.211v32.284h4.211V86.672z M665.756,90.333v28.624h4.211
						V90.333h10.986v-3.66h-26.182v3.66H665.756z M625.02,106.756h-11.17l5.492-15.579h0.184L625.02,106.756z M609.547,118.957
						l2.975-8.447h13.824l2.975,8.447h4.395l-11.719-32.284h-4.941l-11.721,32.284H609.547z M558.096,118.957l-0.365-24.964h0.182
						l10.986,24.964h3.297l10.984-25.527h0.184l-0.367,25.527h4.213V86.672h-5.127l-11.398,26.465h-0.092L559.01,86.672h-5.125
						v32.284H558.096z M511.039,90.426c1.037,0,1.969,0.133,2.793,0.399c0.824,0.266,1.518,0.657,2.082,1.173
						c0.564,0.516,0.992,1.134,1.281,1.853c0.291,0.72,0.436,1.518,0.436,2.393c0,0.908-0.137,1.745-0.412,2.511
						c-0.275,0.767-0.695,1.439-1.26,2.018s-1.258,1.032-2.082,1.36c-0.822,0.329-1.77,0.493-2.838,0.493h-7.873v-12.2H511.039z
						 M503.166,118.957V106.38h7.369l7.828,12.576h4.578l-8.012-13.092c1.129-0.312,2.121-0.766,2.977-1.361
						c0.854-0.594,1.578-1.306,2.174-2.135c0.594-0.828,1.037-1.76,1.326-2.792c0.291-1.032,0.436-2.142,0.436-3.332
						c0-1.501-0.236-2.846-0.709-4.035c-0.475-1.189-1.176-2.197-2.105-3.027c-0.932-0.828-2.084-1.454-3.457-1.877
						c-1.373-0.422-2.945-0.633-4.715-0.633h-11.9v32.284H503.166z M446.404,102.896c0-1.752,0.26-3.384,0.779-4.896
						c0.518-1.51,1.266-2.825,2.242-3.943c0.977-1.118,2.145-1.979,3.502-2.583c1.357-0.605,2.846-0.907,4.463-0.907
						s3.105,0.3,4.463,0.9s2.525,1.456,3.502,2.567c0.977,1.111,1.725,2.416,2.244,3.917c0.518,1.501,0.777,3.122,0.777,4.863
						c0,1.741-0.26,3.362-0.777,4.863c-0.52,1.501-1.268,2.807-2.244,3.918c-0.977,1.11-2.145,1.966-3.502,2.566
						c-1.357,0.6-2.846,0.9-4.463,0.9s-3.105-0.298-4.463-0.894c-1.357-0.596-2.525-1.446-3.502-2.55
						c-0.977-1.102-1.725-2.399-2.242-3.891C446.664,106.236,446.404,104.626,446.404,102.896 M442.01,102.896
						c0,2.293,0.367,4.427,1.1,6.402c0.732,1.976,1.785,3.688,3.158,5.136c1.373,1.447,3.006,2.571,4.898,3.37
						c1.893,0.799,3.967,1.199,6.225,1.199c2.229,0,4.287-0.401,6.18-1.205c1.893-0.803,3.525-1.933,4.898-3.388
						c1.373-1.455,2.434-3.175,3.182-5.161c0.748-1.985,1.121-4.131,1.121-6.435c0-2.304-0.373-4.449-1.121-6.435
						c-0.748-1.985-1.809-3.706-3.182-5.161s-3.006-2.584-4.898-3.388c-1.893-0.803-3.951-1.205-6.18-1.205
						c-2.258,0-4.332,0.404-6.225,1.211c-1.893,0.808-3.525,1.943-4.898,3.405c-1.373,1.463-2.426,3.192-3.158,5.187
						C442.377,98.424,442.01,100.582,442.01,102.896 M388.178,118.957v-13.514h13.184v-3.754h-13.184V90.426h16.662v-3.754h-20.873
						v32.284H388.178z M332.701,109.485c0,1.404,0.267,2.692,0.801,3.867c0.534,1.175,1.32,2.181,2.357,3.02
						c1.037,0.839,2.312,1.487,3.823,1.945c1.51,0.457,3.211,0.686,5.103,0.686c1.953,0,3.7-0.227,5.242-0.68
						c1.54-0.453,2.845-1.095,3.913-1.925c1.068-0.83,1.884-1.827,2.449-2.989c0.565-1.163,0.847-2.439,0.847-3.829
						c0-1.51-0.275-2.778-0.824-3.805c-0.549-1.026-1.289-1.857-2.22-2.491c-0.931-0.634-1.961-1.125-3.09-1.472
						c-1.129-0.348-2.441-0.657-3.936-0.929l-2.014-0.363c-1.221-0.211-2.266-0.43-3.136-0.656c-0.87-0.227-1.648-0.522-2.334-0.884
						c-0.687-0.362-1.229-0.831-1.625-1.405c-0.397-0.573-0.596-1.283-0.596-2.129c0-0.845,0.184-1.601,0.55-2.265
						c0.366-0.664,0.884-1.215,1.556-1.653c0.671-0.438,1.449-0.77,2.335-0.997c0.884-0.226,1.846-0.34,2.883-0.34
						c1.068,0,2.045,0.12,2.93,0.361c0.885,0.24,1.655,0.594,2.312,1.059c0.655,0.466,1.167,1.037,1.533,1.713
						c0.366,0.676,0.549,1.435,0.549,2.276h4.212c0-1.373-0.283-2.618-0.847-3.732c-0.565-1.114-1.358-2.06-2.38-2.839
						c-1.023-0.779-2.243-1.374-3.662-1.786c-1.419-0.412-2.969-0.618-4.647-0.618c-1.739,0-3.326,0.219-4.76,0.657
						c-1.435,0.438-2.663,1.065-3.685,1.88c-1.023,0.815-1.808,1.781-2.357,2.899c-0.55,1.117-0.824,2.326-0.824,3.624
						c0,1.48,0.289,2.726,0.869,3.738c0.58,1.012,1.366,1.827,2.358,2.446c0.991,0.619,2.067,1.095,3.227,1.427
						c1.159,0.332,2.517,0.635,4.074,0.906l2.014,0.362c1.098,0.182,2.06,0.393,2.884,0.635c0.824,0.242,1.556,0.551,2.197,0.928
						c0.641,0.378,1.144,0.854,1.51,1.427c0.367,0.574,0.55,1.268,0.55,2.084c0,0.906-0.176,1.722-0.527,2.446
						c-0.351,0.726-0.877,1.337-1.579,1.836c-0.702,0.498-1.549,0.875-2.54,1.132c-0.992,0.256-2.129,0.385-3.411,0.385
						c-1.22,0-2.319-0.151-3.295-0.451c-0.977-0.301-1.808-0.722-2.495-1.263c-0.687-0.541-1.206-1.172-1.556-1.893
						c-0.352-0.722-0.527-1.503-0.527-2.345H332.701z M283.447,118.957l-0.183-24.776h0.183l17.395,24.776h4.028V86.672h-4.212
						l0.184,24.964h-0.184l-17.394-24.964h-4.028v32.284H283.447z M213.046,106.756h-11.169l5.493-15.579h0.183L213.046,106.756z
						 M197.574,118.957l2.975-8.447h13.824l2.975,8.447h4.395l-11.719-32.284h-4.943l-11.719,32.284H197.574z M153.996,90.426
						c1.037,0,1.968,0.133,2.792,0.399c0.824,0.266,1.518,0.657,2.083,1.173c0.564,0.516,0.991,1.134,1.282,1.853
						c0.29,0.72,0.435,1.518,0.435,2.393c0,0.908-0.138,1.745-0.412,2.511c-0.275,0.767-0.695,1.439-1.259,2.018
						c-0.565,0.579-1.259,1.032-2.083,1.36c-0.824,0.329-1.77,0.493-2.838,0.493h-7.873v-12.2H153.996z M146.123,118.957V106.38
						h7.37l7.827,12.576h4.578l-8.011-13.092c1.129-0.312,2.121-0.766,2.975-1.361c0.854-0.594,1.58-1.306,2.175-2.135
						c0.595-0.828,1.037-1.76,1.327-2.792c0.29-1.032,0.435-2.142,0.435-3.332c0-1.501-0.237-2.846-0.709-4.035
						c-0.474-1.189-1.176-2.197-2.106-3.027c-0.931-0.828-2.083-1.454-3.456-1.877c-1.373-0.422-2.945-0.633-4.715-0.633h-11.901
						v32.284H146.123z M66.841,90.333v28.624h4.211V90.333h10.986v-3.66H55.854v3.66H66.841z"/>
				</g>
			</g>
			<g opacity="0.5" clip-path="url(#SVGID_4_)">
				<g>
					<defs>
						<rect id="SVGID_33_" x="-0.821" y="-0.479" width="556.269" height="35.395"/>
					</defs>
					<clipPath id="SVGID_34_">
						<use xlink:href="#SVGID_33_"  overflow="visible"/>
					</clipPath>
					<path clip-path="url(#SVGID_34_)" fill="#FFFFFF" d="M530.631,34.493l-0.184-24.776h0.184l17.395,24.776h4.027V2.208h-4.211
						l0.184,24.964h-0.184L530.447,2.208h-4.029v32.284H530.631z M503.166,2.208h-4.211v32.284h4.211V2.208z M332.701,25.021
						c0,1.404,0.266,2.692,0.801,3.867c0.533,1.175,1.319,2.181,2.357,3.02c1.037,0.839,2.312,1.487,3.822,1.945
						c1.511,0.457,3.212,0.686,5.104,0.686c1.953,0,3.7-0.227,5.241-0.68c1.541-0.453,2.846-1.095,3.914-1.925
						s1.884-1.827,2.449-2.989c0.564-1.163,0.847-2.439,0.847-3.829c0-1.51-0.275-2.778-0.824-3.805
						c-0.549-1.026-1.29-1.857-2.22-2.491c-0.931-0.634-1.961-1.125-3.09-1.472c-1.129-0.348-2.442-0.657-3.937-0.929l-2.014-0.363
						c-1.221-0.211-2.265-0.43-3.135-0.656c-0.87-0.227-1.648-0.522-2.335-0.884c-0.686-0.362-1.228-0.831-1.625-1.405
						c-0.397-0.573-0.595-1.283-0.595-2.129c0-0.845,0.183-1.601,0.55-2.265c0.366-0.664,0.884-1.215,1.556-1.653
						c0.671-0.438,1.449-0.77,2.334-0.997c0.885-0.226,1.846-0.34,2.884-0.34c1.068,0,2.044,0.12,2.93,0.361
						c0.885,0.24,1.655,0.594,2.311,1.059c0.656,0.466,1.168,1.037,1.534,1.713c0.366,0.676,0.549,1.435,0.549,2.276h4.211
						c0-1.373-0.282-2.618-0.846-3.732c-0.565-1.114-1.359-2.06-2.381-2.839s-2.243-1.374-3.662-1.786
						c-1.419-0.412-2.968-0.618-4.646-0.618c-1.739,0-3.326,0.219-4.76,0.657c-1.435,0.438-2.663,1.065-3.685,1.88
						c-1.023,0.815-1.808,1.781-2.358,2.899c-0.549,1.117-0.824,2.326-0.824,3.624c0,1.48,0.29,2.726,0.87,3.738
						c0.579,1.012,1.365,1.827,2.358,2.446c0.991,0.619,2.067,1.095,3.227,1.427c1.159,0.332,2.517,0.635,4.074,0.906l2.014,0.362
						c1.098,0.182,2.06,0.393,2.883,0.635c0.824,0.242,1.557,0.551,2.198,0.928c0.641,0.378,1.144,0.854,1.51,1.427
						c0.366,0.574,0.55,1.268,0.55,2.084c0,0.906-0.176,1.722-0.527,2.446c-0.351,0.725-0.877,1.337-1.579,1.836
						c-0.702,0.498-1.549,0.875-2.541,1.132c-0.992,0.256-2.128,0.385-3.41,0.385c-1.221,0-2.319-0.151-3.296-0.451
						c-0.977-0.301-1.808-0.722-2.494-1.263c-0.687-0.541-1.206-1.172-1.557-1.893c-0.351-0.722-0.526-1.503-0.526-2.345H332.701z
						 M268.066,34.493l-0.183-24.776h0.183l17.394,24.776h4.028V2.208h-4.211l0.183,24.964h-0.183L267.883,2.208h-4.028v32.284
						H268.066z M240.51,22.292h-11.169l5.493-15.579h0.183L240.51,22.292z M225.038,34.493l2.976-8.447h13.824l2.975,8.447h4.394
						L237.489,2.208h-4.944l-11.718,32.284H225.038z M163.517,34.493v-3.754h-17.394V19.945h13.549v-3.754h-13.549V5.962h17.028
						V2.208h-21.24v32.284H163.517z M84.968,18.389c0,2.329,0.366,4.492,1.098,6.487c0.733,1.997,1.77,3.713,3.113,5.15
						c1.342,1.437,2.937,2.548,4.783,3.334c1.846,0.787,3.853,1.18,6.02,1.18c1.8,0,3.463-0.252,4.989-0.755
						c1.526-0.503,2.876-1.211,4.051-2.126c1.175-0.914,2.136-2.012,2.884-3.292c0.747-1.28,1.289-2.698,1.625-4.253h-4.349
						c-0.305,1.051-0.709,1.982-1.213,2.792c-0.503,0.811-1.129,1.486-1.876,2.026c-0.748,0.541-1.633,0.953-2.655,1.239
						c-1.023,0.285-2.175,0.427-3.456,0.427c-1.557,0-2.984-0.3-4.28-0.9c-1.298-0.6-2.419-1.456-3.365-2.566
						c-0.946-1.111-1.678-2.417-2.197-3.918c-0.519-1.501-0.778-3.122-0.778-4.863c0-1.771,0.259-3.414,0.778-4.93
						c0.519-1.516,1.259-2.822,2.22-3.918c0.961-1.095,2.106-1.936,3.433-2.521c1.328-0.585,2.785-0.878,4.372-0.878
						c1.19,0,2.281,0.143,3.273,0.428c0.991,0.285,1.861,0.698,2.609,1.238c0.747,0.541,1.38,1.216,1.9,2.026
						c0.518,0.811,0.93,1.741,1.235,2.791h4.349c-0.336-1.554-0.87-2.972-1.602-4.252s-1.671-2.377-2.815-3.292
						c-1.145-0.915-2.472-1.624-3.983-2.127c-1.51-0.503-3.166-0.754-4.966-0.754c-2.228,0-4.273,0.403-6.134,1.208
						c-1.862,0.805-3.472,1.937-4.829,3.396c-1.358,1.459-2.403,3.183-3.136,5.173C85.334,13.93,84.968,16.079,84.968,18.389
						 M6.967,18.433c0-1.752,0.259-3.384,0.779-4.896c0.518-1.51,1.265-2.825,2.242-3.943c0.977-1.118,2.144-1.979,3.502-2.583
						c1.358-0.605,2.845-0.907,4.463-0.907c1.617,0,3.105,0.3,4.463,0.9s2.525,1.456,3.502,2.567
						c0.976,1.111,1.724,2.416,2.243,3.917c0.519,1.501,0.778,3.122,0.778,4.863c0,1.741-0.259,3.362-0.778,4.863
						c-0.519,1.501-1.267,2.807-2.243,3.918c-0.977,1.11-2.144,1.966-3.502,2.566c-1.358,0.6-2.846,0.9-4.463,0.9
						c-1.618,0-3.105-0.298-4.463-0.894c-1.358-0.596-2.525-1.446-3.502-2.55c-0.977-1.102-1.724-2.399-2.242-3.891
						C7.226,21.772,6.967,20.163,6.967,18.433 M2.573,18.433c0,2.293,0.366,4.427,1.099,6.402c0.732,1.976,1.785,3.688,3.158,5.136
						c1.373,1.447,3.005,2.571,4.898,3.37c1.892,0.799,3.967,1.199,6.225,1.199c2.228,0,4.287-0.401,6.18-1.205
						c1.892-0.803,3.525-1.933,4.898-3.388c1.373-1.455,2.433-3.175,3.181-5.161c0.748-1.985,1.122-4.131,1.122-6.435
						c0-2.304-0.374-4.449-1.122-6.435c-0.748-1.985-1.808-3.706-3.181-5.161s-3.006-2.584-4.898-3.388
						c-1.893-0.803-3.952-1.205-6.18-1.205c-2.258,0-4.333,0.404-6.225,1.211C9.835,4.181,8.203,5.315,6.83,6.777
						c-1.373,1.463-2.426,3.192-3.158,5.188C2.939,13.96,2.573,16.118,2.573,18.433"/>
				</g>
			</g>
		</g>
	</g>
</g>
</svg>
