<?xml version="1.0" encoding="utf-8"?>
<!-- Generator: Adobe Illustrator 24.0.0, SVG Export Plug-In . SVG Version: 6.00 Build 0)  -->
<svg version="1.1" id="Layer_1" xmlns="http://www.w3.org/2000/svg" xmlns:xlink="http://www.w3.org/1999/xlink" x="0px" y="0px"
	 viewBox="0 0 295 285" style="enable-background:new 0 0 295 285;" xml:space="preserve">
<style type="text/css">
	.st0{fill-rule:evenodd;clip-rule:evenodd;}
</style>
<title>OA_symbol</title>
<g id="ID-Black">
	<path id="Combined-Shape" class="st0" d="M187.7,206.2h53.7v52.4h-53.7l-86.1-45.9l-35,45.9H0L86.1,146L187.7,206.2z M241.3,206.2
		v-52.5H295v52.5H241.3z"/>
	<path id="Fill-5" class="st0" d="M283,36.1h-52.9c0.7,8.3-0.3,27.5-11.1,34.6c-8.2,5.4-25.2,3-58.4-15.2c-4.5-2.5-9-4.8-13.4-6.9
		c-43.4-22-79.9-30.1-105.4-13.1c-33.2,22.1-32.3,71.2-31,88.7h52.9c-0.7-8.3,0-27.4,10.9-34.4c8.2-5.4,26.2-3,59.3,15.2
		c4.5,2.5,9,4.8,13.4,6.9c43.4,22,79.8,28.3,105.3,11.3C285.8,101.1,284.3,53.6,283,36.1"/>
</g>
</svg>
