<?xml version="1.0" encoding="UTF-8"?>
<svg width="295px" height="233px" viewBox="0 0 295 233" version="1.1" xmlns="http://www.w3.org/2000/svg" xmlns:xlink="http://www.w3.org/1999/xlink">
    <g id="Page-1" stroke="none" stroke-width="1" fill="none" fill-rule="evenodd">
        <g id="OA_symbol" fill="#7E7E7E" fill-rule="nonzero">
            <path d="M187.7,180.2 L241.4,180.2 L241.4,232.6 L187.7,232.6 L101.6,186.7 L66.6,232.6 L0,232.6 L86.1,120 L187.7,180.2 Z M241.3,180.2 L241.3,127.7 L295,127.7 L295,180.2 L241.3,180.2 Z" id="Combined-Shape"></path>
            <path d="M283,10.1 L230.1,10.1 C230.8,18.4 229.8,37.6 219,44.7 C210.8,50.1 193.8,47.7 160.6,29.5 C156.1,27 151.6,24.7 147.2,22.6 C103.8,0.6 67.3,-7.5 41.8,9.5 C8.6,31.6 9.5,80.7 10.8,98.2 L63.7,98.2 C63,89.9 63.7,70.8 74.6,63.8 C82.8,58.4 100.8,60.8 133.9,79 C138.4,81.5 142.9,83.8 147.3,85.9 C190.7,107.9 227.1,114.2 252.6,97.2 C285.8,75.1 284.3,27.6 283,10.1" id="Fill-5"></path>
        </g>
    </g>
</svg>