<svg xmlns="http://www.w3.org/2000/svg" width="252" height="247" fill="none" viewBox="0 0 252 247">
  <g filter="url(#filter0_i)">
    <path fill="#142636" fill-rule="evenodd" d="M168.555 154.89c2.768-5.108 5.56-10.261 9-15.007 4.83-6.662 11.256-12.543 17.621-18.366 12.115-11.086 24.006-21.967 24.233-37.646.346-23.886-20.04-44.38-40.215-56.96-13.198-8.227-28.665-8.015-44.342-7.8-6.65.091-13.337.183-19.906-.369-6.775-.569-13.601-1.922-20.39-3.267-15.67-3.106-31.15-6.173-45.373.516-21.26 9.998-34.765 31.787-42.978 53.89-8.043 21.645-7.725 45.161-2.15 67.554 5.556 22.314 13.76 46.622 33.477 58.275 15.045 8.892 33.044 5.451 50.727 2.071 4.64-.886 9.257-1.769 13.794-2.424 17.106-2.468 34.095-5.635 48.056-15.892 8.524-6.263 13.445-15.345 18.446-24.575zm70.919 54.228c6.978-10.015 14.193-20.368 11.684-32.178-3.802-17.901-12.66-40.538-30.793-42.068-12.422-1.048-19.332 10.299-26.376 21.865-3.144 5.162-6.314 10.367-10.012 14.534-2.289 2.579-4.804 4.967-7.291 7.329-6.739 6.399-13.275 12.606-14.562 21.89-2.169 15.653-2.026 35.915 11.772 43.533 9.909 5.471 20.184-1.154 30.4-7.74 3.648-2.353 7.29-4.701 10.904-6.491 8.658-4.287 16.272-8.971 21.72-16.979.835-1.228 1.693-2.459 2.554-3.695z" clip-rule="evenodd"/>
  </g>
  <path stroke="#fff" d="M203.66 22.269c1.404-6.11 3.444-13.257-3.066-17.744-6.544-4.51-17.485-2.935-26.939-2.937-9.313-.002-19.221-.885-26.48 2.925-7.845 4.118-13.628 10.774-12.094 17.32 1.435 6.127 12.36 8.438 19.141 12.761 6.491 4.138 10.138 11.467 19.151 11.65 9.041.184 14.366-6.289 20.129-10.85 4.956-3.924 8.997-8.072 10.158-13.125z" clip-rule="evenodd"/>
  <defs>
    <filter id="filter0_i" width="251.668" height="238.05" x="0" y="12" color-interpolation-filters="sRGB" filterUnits="userSpaceOnUse">
      <feFlood flood-opacity="0" result="BackgroundImageFix"/>
      <feBlend in="SourceGraphic" in2="BackgroundImageFix" result="shape"/>
      <feColorMatrix in="SourceAlpha" result="hardAlpha" values="0 0 0 0 0 0 0 0 0 0 0 0 0 0 0 0 0 0 127 0"/>
      <feOffset dy="4"/>
      <feGaussianBlur stdDeviation="2"/>
      <feComposite in2="hardAlpha" k2="-1" k3="1" operator="arithmetic"/>
      <feColorMatrix values="0 0 0 0 0 0 0 0 0 0 0 0 0 0 0 0 0 0 0.25 0"/>
      <feBlend in2="shape" result="effect1_innerShadow"/>
    </filter>
  </defs>
</svg>
