<svg xmlns="http://www.w3.org/2000/svg" width="211" height="202" fill="none" viewBox="0 0 211 202">
  <path fill="#142636" fill-rule="evenodd" d="M145.571 111.438c2.158-3.984 4.336-8.002 7.019-11.704 3.767-5.196 8.779-9.782 13.742-14.323 9.448-8.646 18.722-17.132 18.899-29.36.27-18.628-15.628-34.612-31.363-44.422-10.293-6.416-22.355-6.251-34.581-6.083-5.187.07-10.402.142-15.525-.288-5.284-.444-10.607-1.499-15.903-2.548-12.22-2.422-24.292-4.814-35.385.402-16.58 7.798-27.112 24.79-33.518 42.029-6.272 16.88-6.024 35.22-1.676 52.684 4.333 17.403 10.732 36.36 26.108 45.448 11.733 6.935 25.77 4.251 39.562 1.615 3.618-.691 7.219-1.38 10.757-1.89 13.341-1.925 26.59-4.395 37.478-12.394 6.648-4.885 10.486-11.968 14.386-19.166zm55.309 42.292c5.442-7.811 11.068-15.885 9.112-25.095-2.965-13.962-9.873-31.616-24.015-32.809-9.688-.817-15.077 8.032-20.571 17.052-2.451 4.026-4.923 8.086-7.808 11.336-1.785 2.011-3.746 3.873-5.686 5.715-5.255 4.99-10.353 9.831-11.356 17.072-1.692 12.207-1.58 28.01 9.18 33.95 7.728 4.267 15.742-.9 23.708-6.036 2.846-1.835 5.686-3.666 8.505-5.062 6.752-3.343 12.69-6.997 16.939-13.242.651-.957 1.32-1.917 1.992-2.881z" clip-rule="evenodd"/>
</svg>
