<svg xmlns="http://www.w3.org/2000/svg" width="303" height="282" fill="none" viewBox="0 0 303 282">
  <path stroke="#fff" stroke-width=".3" d="M211.555 168.883c-9.659 13.324-14.206 29.854-27.446 39.582-13.961 10.257-30.95 13.424-48.056 15.892-21.828 3.15-45.53 11.578-64.52.353-19.717-11.654-27.922-35.961-33.478-58.275-5.575-22.393-5.893-45.909 2.15-67.554 8.213-22.103 21.717-43.892 42.978-53.89 20.387-9.588 43.352.869 65.763 2.751 22.053 1.852 45.452-3.548 64.248 8.17 20.175 12.578 40.561 33.073 40.215 56.959-.347 23.916-27.83 36.667-41.854 56.012zM285.158 205.94c2.818 13.267-6.635 24.697-14.238 35.873-5.449 8.007-13.063 12.692-21.72 16.979-13.733 6.801-27.855 21.656-41.304 14.231-13.798-7.618-13.941-27.88-11.772-43.533 1.761-12.711 13.363-19.653 21.853-29.219 11.985-13.504 18.422-37.915 36.387-36.399 18.134 1.53 26.992 24.166 30.794 42.068z" clip-rule="evenodd"/>
  <path stroke="#fff" stroke-width=".3" d="M237.66 51.269c1.404-6.11 3.444-13.257-3.066-17.744-6.544-4.51-17.485-2.934-26.939-2.937-9.313-.002-19.221-.885-26.48 2.925-7.845 4.117-13.628 10.774-12.094 17.32 1.435 6.127 12.36 8.438 19.141 12.761 6.491 4.138 10.138 11.467 19.151 11.65 9.041.184 14.366-6.289 20.129-10.85 4.956-3.925 8.997-8.073 10.158-13.125z" clip-rule="evenodd"/>
</svg>
