<svg xmlns="http://www.w3.org/2000/svg" width="268" height="271" fill="none" viewBox="0 0 268 271">
  <path fill="#142636" fill-rule="evenodd" d="M159.782 71.806c19.742 3.239 42.468-7.9 58.367 4.131 16.256 12.302 20.58 35.33 20.186 55.314-.376 19.098-12.687 34.697-22.285 51.221-10.276 17.693-16.028 41.181-35.529 48.319-19.493 7.135-41.205-3.807-59.755-13.443-15.506-8.055-25.677-22.097-35.76-36.175-9.33-13.025-15.578-26.869-20.275-42.058-6.25-20.215-22.163-42.548-11.5-60.702 10.584-18.018 37.545-18.559 58.833-19.88 16.85-1.044 31.021 10.534 47.718 13.273z" clip-rule="evenodd"/>
</svg>
