<svg xmlns="http://www.w3.org/2000/svg" width="268" height="271" fill="none" viewBox="0 0 268 271">
  <path stroke="#fff" d="M145.124 235.958c24.184 4.056 50.375-1.99 68.453-19.817 17.592-17.347 20.223-44.278 22.231-69.607 2.016-25.432 5.426-54.115-10.961-72.543-16.046-18.044-42.776-15.303-66.223-14.254-20.054.897-38.138 8.014-55.052 19.68-20.666 14.255-47.94 27.214-50.582 53.183-2.658 26.119 21.862 44.164 38.748 63.107 15.599 17.5 30.921 36.483 53.386 40.251z" clip-rule="evenodd"/>
  <path stroke="#fff" d="M95.172 216.055c17.228 15.721 41.651 23.837 66.048 17.786 23.741-5.888 40.731-27.539 56.335-48.139 15.667-20.683 34.251-43.435 31.236-67.47-2.953-23.533-25.984-34.744-45.438-45.734-16.639-9.4-35.126-12.493-55.185-11.11-24.509 1.691-53.62-1.074-70.088 19.75-16.563 20.945-6.79 48.775-3.657 73.502 2.894 22.844 4.745 46.812 20.749 61.415z" clip-rule="evenodd"/>
</svg>
