<svg xmlns="http://www.w3.org/2000/svg" width="243" height="199" fill="none" viewBox="0 0 243 199">
  <path fill="#142636" fill-rule="evenodd" d="M129.972.22c14.578-.764 28.898.284 42.282 6.083 16.376 7.096 33.215 15.26 42.296 30.564 10.284 17.33 14.482 38.326 10.262 58.009-4.485 20.918-15.178 42.328-33.993 52.672-18.199 10.006-40.133 1.259-60.847-.527-18.537-1.599-38.457 1.359-53.637-9.347-15.254-10.759-19.422-30.367-26.866-47.434-8.388-19.228-28.913-39.653-19.25-58.28 10.077-19.422 39.663-14.734 60.585-21.392C103.993 6.372 116.144.943 129.972.22z" clip-rule="evenodd"/>
</svg>
