<svg xmlns="http://www.w3.org/2000/svg" width="340" height="186" fill="none" viewBox="0 0 340 186">
  <path stroke="#fff" stroke-width=".3" d="M303.808 150.666c-4.712 1.033-8.685-2.743-9.949-11.75-1.231-8.765 1.22-21.485 3.607-33.433 2.397-11.995 4.899-25.565 9.79-33.616 4.788-7.884 9.215-5.639 13.244-4.305 3.446 1.141 5.871 5.127 7.597 11.204 2.108 7.426 5.524 14.48 3.18 26.751-2.358 12.341-8.644 19.92-13.678 28.195-4.651 7.644-9.413 15.994-13.791 16.954z" clip-rule="evenodd"/>
  <path stroke="#fff" stroke-width=".3" d="M167.648 5.38c27.925-1.804 57.56-9.096 82.073.38 25.423 9.829 37.318 30.327 46.822 49.448 9.663 19.442 15.589 40.175 7.563 59.974-8.224 20.288-27.658 37.466-52.111 49.915-24.516 12.48-54.436 23.246-84.347 19.551-28.586-3.531-41.796-25.934-65.071-38.006-22.828-11.841-57.957-13.789-69.623-31.858-11.841-18.343-.276-39.918 11.413-58.308C55.157 39.502 73.02 25.19 95.944 15.69c21.493-8.908 46.792-8.702 71.704-10.31z" clip-rule="evenodd"/>
  <path stroke="#fff" stroke-width=".3" d="M97.032 36.846c-18.68-2.12-36.214-20.245-53.502-12.843-17.257 7.388-21.13 29.91-27.578 47.556-5.73 15.687-12.505 32.394-7.446 48.307 4.818 15.154 19.37 24.734 33.171 32.606 11.17 6.371 24.119 5.98 36.901 7.361 12.134 1.311 23.589 1.875 35.715.483 19.706-2.263 49.288 7.18 56.977-11.126 7.923-18.865-27.878-31.113-30.726-51.375-2.991-21.285 27.398-43.626 14.917-61.114-11.605-16.26-38.592 2.396-58.43.145z" clip-rule="evenodd"/>
</svg>
