<svg xmlns="http://www.w3.org/2000/svg" width="284" height="234" fill="none" viewBox="0 0 284 234">
  <path fill="#142636" fill-rule="evenodd" d="M159.877.28c18.717-.977 37.104.366 54.288 7.797 21.026 9.092 42.647 19.553 54.307 39.164 13.204 22.208 18.594 49.111 13.175 74.334-5.758 26.805-19.488 54.239-43.645 67.494-23.366 12.822-51.529 1.614-78.125-.676-23.8-2.049-49.377 1.743-68.868-11.977-19.584-13.786-24.935-38.913-34.494-60.781-10.77-24.64-37.123-50.813-24.715-74.68 12.938-24.888 50.924-18.881 77.788-27.413C126.522 8.165 142.123 1.21 159.877.281z" clip-rule="evenodd"/>
  <path stroke="#fff" d="M142.95 61.12c-25.527-13.295-55.092-29.602-79.38-25.05-24.415 4.577-25.608 28.09-32.566 46.035-6.854 17.675-17.974 34.949-6.75 55.358 12.132 22.058 36.816 44.617 66.399 53.095 27.685 7.935 45.76-8.784 69.537-14.138 22.757-5.123 57.294.705 64.715-16.088 7.445-16.845-16.778-38.214-32.373-57.092-13.412-16.237-28.472-31.125-49.582-42.12z" clip-rule="evenodd"/>
</svg>
