<svg width="320" height="322" viewBox="0 0 320 322" fill="none" xmlns="http://www.w3.org/2000/svg">
<g id="Group 12">
<path id="Story 4" fill-rule="evenodd" clip-rule="evenodd" d="M180.107 74.944C205.374 79.0911 234.46 64.8285 254.808 80.2338C275.613 95.9852 281.147 125.471 280.644 151.06C280.162 175.513 264.405 195.488 252.122 216.646C238.97 239.301 231.608 269.376 206.65 278.515C181.701 287.651 153.913 273.64 130.172 261.302C110.327 250.988 97.3096 233.009 84.4041 214.982C72.4641 198.305 64.4671 180.578 58.4562 161.129C50.4564 135.245 30.0905 106.649 43.7377 83.4044C57.2836 60.3328 91.79 59.6401 119.035 57.9498C140.6 56.6119 158.737 71.4367 180.107 74.944Z" fill="#142636"/>
<path id="Vector" fill-rule="evenodd" clip-rule="evenodd" d="M161.345 285.13C192.297 290.324 225.818 282.582 248.955 259.756C271.47 237.544 274.837 203.061 277.407 170.628C279.988 138.064 284.352 101.337 263.379 77.7414C242.843 54.6372 208.632 58.1464 178.624 59.4897C152.958 60.6386 129.813 69.7505 108.165 84.6894C81.7156 102.942 46.8103 119.535 43.428 152.787C40.0261 186.23 71.4076 209.336 93.0193 233.592C112.985 255.999 132.594 280.306 161.345 285.13Z" stroke="white"/>
<path id="Vector_2" fill-rule="evenodd" clip-rule="evenodd" d="M97.4161 259.646C119.466 279.776 150.724 290.168 181.948 282.421C212.333 274.881 234.077 247.158 254.048 220.781C274.1 194.297 297.885 165.165 294.026 134.39C290.247 104.256 260.77 89.9015 235.871 75.8295C214.576 63.7939 190.915 59.8331 165.243 61.6046C133.876 63.7691 96.6182 60.2289 75.5416 86.8932C54.3433 113.711 66.852 149.346 70.8611 181.008C74.5648 210.258 76.934 240.948 97.4161 259.646Z" stroke="white"/>
</g>
</svg>
