<svg xmlns="http://www.w3.org/2000/svg" width="320" height="322" fill="none" viewBox="0 0 320 322">
  <path stroke="#fff" stroke-width=".3" d="M180.107 74.944c25.267 4.147 54.353-10.115 74.701 5.29 20.805 15.751 26.339 45.237 25.836 70.826-.482 24.453-16.239 44.428-28.522 65.586-13.152 22.655-20.514 52.73-45.472 61.869-24.949 9.136-52.737-4.875-76.478-17.213-19.845-10.314-32.862-28.293-45.768-46.32-11.94-16.677-19.937-34.404-25.948-53.853-8-25.884-28.366-54.48-14.718-77.725C57.284 60.333 91.79 59.64 119.035 57.95c21.565-1.338 39.702 13.487 61.072 16.994z" clip-rule="evenodd"/>
  <path stroke="#fff" stroke-width=".3" d="M161.345 285.13c30.952 5.194 64.473-2.548 87.61-25.374 22.515-22.212 25.882-56.695 28.452-89.128 2.581-32.564 6.945-69.291-14.028-92.887-20.536-23.104-54.747-19.595-84.755-18.251-25.666 1.149-48.811 10.26-70.459 25.2-26.45 18.252-61.355 34.845-64.737 68.097-3.402 33.443 27.98 56.549 49.591 80.805 19.966 22.407 39.575 46.714 68.326 51.538z" clip-rule="evenodd"/>
  <path stroke="#fff" stroke-width=".3" d="M97.416 259.646c22.05 20.13 53.308 30.522 84.532 22.775 30.385-7.54 52.129-35.263 72.1-61.64 20.052-26.484 43.837-55.616 39.978-86.391-3.779-30.134-33.256-44.488-58.155-58.56-21.295-12.036-44.956-15.997-70.628-14.225-31.367 2.164-68.625-1.376-89.701 25.288-21.199 26.818-8.69 62.453-4.68 94.115 3.703 29.25 6.072 59.94 26.554 78.638z" clip-rule="evenodd"/>
</svg>
