<svg width="229" height="263" viewBox="0 0 229 263" fill="none" xmlns="http://www.w3.org/2000/svg">
<path fill-rule="evenodd" clip-rule="evenodd" d="M44.6432 233.469C66.4264 255.077 95.5964 266.836 123.026 259.727C149.718 252.808 166.715 224.634 182.239 197.805C197.826 170.869 216.531 141.29 210.149 109.163C203.901 77.7061 175.963 61.8793 152.182 46.4859C131.842 33.3202 110.13 28.4813 87.1439 29.5436C59.0593 30.8415 25.1243 26.0268 8.62986 53.1202C-7.95992 80.3702 6.68051 117.815 13.281 150.869C19.3786 181.405 24.4085 213.398 44.6432 233.469Z" stroke="#142636"/>
<path fill-rule="evenodd" clip-rule="evenodd" d="M131.849 13.749C103.448 -1.3305 71.117 -4.2625 46.7457 11.2398C23.0291 26.3257 15.8172 59.8202 9.5931 91.5145C3.34405 123.336 -5.06649 158.762 11.8165 189.107C28.3476 218.819 60.8272 226.214 89.1126 234.44C113.305 241.475 136.071 239.724 158.119 231.653C185.057 221.792 219.727 216.292 226.808 184.036C233.93 151.594 207.234 118.421 189.83 87.2111C173.752 58.3788 158.23 27.7566 131.849 13.749Z" stroke="#142636"/>
</svg>
