<svg width="182" height="301" viewBox="0 0 182 301" fill="none" xmlns="http://www.w3.org/2000/svg">
<path fill-rule="evenodd" clip-rule="evenodd" d="M92.9227 16.1335C73.4179 11.3778 50.9259 -11.4489 35.4067 10.1226C19.7974 31.8193 30.2688 77.7734 24.3627 111.431C18.5659 144.466 -2.00734 169.994 1.37262 204.077C4.79321 238.569 23.9524 260.864 40.9342 278.534C56.6547 294.891 74.7961 302.379 92.9227 299.335C109.895 296.485 125.196 281.728 138.244 262.191C150.554 243.76 157.61 218.443 164.328 192.421C172.004 162.689 184.805 132.309 179.917 100.765C174.998 69.0213 156.259 51.4191 140.031 35.6323C125.528 21.5233 109.296 20.1256 92.9227 16.1335Z" stroke="#142636"/>
</svg>
