<svg width="61" height="24" viewBox="0 0 61 24" fill="none" xmlns="http://www.w3.org/2000/svg">
<g clip-path="url(#clip0)">
<path fill-rule="evenodd" clip-rule="evenodd" d="M30.995 4.57783V11.9285C30.995 14.268 31.5468 16.197 32.6506 17.7151C33.7543 19.2333 35.3195 19.9929 37.346 19.9941C39.9464 19.9941 41.5209 18.6896 42.0692 16.0805H46.3942C46.066 18.3236 45.1416 20.1212 43.6204 21.4734C42.0993 22.8257 40.0079 23.5012 37.346 23.5C33.7879 23.5 31.0141 22.3707 29.0247 20.1124C27.1129 17.9434 26.1192 15.3544 26.0439 12.3451V4.57783H31.002V0.5H42.4796V3.76756H46.6794V8.86043H42.4066V4.57783H30.995Z" fill="#142636"/>
<path fill-rule="evenodd" clip-rule="evenodd" d="M2.98419 20.1371C0.994732 17.894 0 15.1895 0 12.0238C0 8.85813 0.994732 6.14664 2.98419 3.88936C4.97592 1.62979 7.76534 0.5 11.3525 0.5C14.9396 0.5 17.7283 1.62979 19.719 3.88936C21.7107 6.1477 22.7061 8.85919 22.7049 12.0238C22.7037 15.1885 21.7085 17.8952 19.719 20.1442C17.7295 22.3803 14.9406 23.4982 11.3525 23.4982C7.7643 23.4982 4.97487 22.3778 2.98419 20.1371ZM6.60836 6.29899C5.50928 7.81008 4.95975 9.73831 4.95975 12.0839C4.95975 14.4294 5.51224 16.3341 6.61705 17.7981C7.72186 19.2621 9.30039 19.9941 11.3525 19.9941C13.4045 19.9941 14.9831 19.2621 16.0879 17.7981C17.1939 16.3352 17.744 14.4305 17.7382 12.0839C17.7325 9.73725 17.18 7.80478 16.0809 6.28663C14.9761 4.76848 13.3976 4.00887 11.3455 4.00764C9.29344 4.0064 7.71439 4.77024 6.60836 6.29899Z" fill="#142636"/>
<path d="M56.538 18.0364C55.4807 16.7324 54.9364 14.9908 54.9051 12.8112H61.0001V9.6866H55.0929C55.6402 5.90057 57.5832 4.00765 60.9222 4.00765C60.9486 4.00765 60.974 4.00889 61.0001 4.00906V0.500366C57.3722 0.506015 54.6233 1.60367 52.7539 3.79405C50.8814 5.98778 49.9453 8.66749 49.9453 11.8332C49.9453 15.0637 50.9006 17.8158 52.8113 20.0895C54.7026 22.3402 57.4331 23.4751 61.0001 23.4979V19.991C59.056 19.9564 57.5675 19.3062 56.538 18.0364Z" fill="#142636"/>
</g>
<defs>
<clipPath id="clip0">
<rect width="61" height="23" fill="white" transform="translate(0 0.5)"/>
</clipPath>
</defs>
</svg>
