<svg width="207" height="33" viewBox="0 0 207 33" fill="none" xmlns="http://www.w3.org/2000/svg">
<path fill-rule="evenodd" clip-rule="evenodd" d="M26.6743 28.7405L26.6265 23.8929H17.9427V20.5782H26.594V19.8496C26.594 19.0778 26.5786 18.461 26.5478 17.9988C26.5047 17.4644 26.4118 16.9349 26.2707 16.4171C26.1607 15.9194 25.9438 15.4508 25.6344 15.0424C25.3031 14.6721 24.8875 14.3839 24.4217 14.2011C23.8062 13.9513 23.1444 13.831 22.4787 13.8478C20.2757 13.8478 18.9347 14.841 18.4558 16.8277H14.3885C14.8662 12.5976 17.64 10.4898 22.7096 10.5045C25.9606 10.5045 28.2029 11.3194 29.4367 12.9493C30.6704 14.5792 31.2873 16.8344 31.2873 19.715V32.0636H17.9461V28.7489L26.6743 28.7405ZM13.7471 28.7405V23.8929H17.9427V28.7472L13.7471 28.7405Z" fill="#142636"/>
<path fill-rule="evenodd" clip-rule="evenodd" d="M84.3321 20.5715V19.8429C84.3321 19.0711 84.3167 18.4543 84.2859 17.9921C84.2428 17.4577 84.1499 16.9282 84.0088 16.4104C83.8988 15.9127 83.682 15.4441 83.3725 15.0357C83.0412 14.6654 82.6256 14.3772 82.1599 14.1944C81.5443 13.9446 80.8825 13.8243 80.2168 13.8411C78.0138 13.8411 76.6734 14.8343 76.1957 16.821H72.1266C72.6033 12.5909 75.3769 10.4831 80.4477 10.4978C83.7009 10.4978 85.9433 11.3126 87.1748 12.9426C88.4063 14.5725 89.0232 16.8277 89.0254 19.7083V32.0569H75.6843V28.7422H84.4073L84.3629 23.8929H75.6808V20.5782L84.3321 20.5715ZM71.3774 28.7405V23.8929H75.6808V28.7473L71.3774 28.7405Z" fill="#142636"/>
<path fill-rule="evenodd" clip-rule="evenodd" d="M99.0022 13.1881H103.042V18.0424H99.0022V32.0552H94.3105V11.0883H99.0022V13.1881Z" fill="#142636"/>
<path fill-rule="evenodd" clip-rule="evenodd" d="M135.025 13.9774H139.301V10.6795H144.893V13.9774H149.536V32.0552H144.86V13.9774H139.308V18.83H135.032V32.0552H130.339V0H135.032L135.025 13.9774Z" fill="#142636"/>
<path fill-rule="evenodd" clip-rule="evenodd" d="M36.5215 32.0553V11.0884H41.2148V14.2719C43.0176 11.7547 45.4601 10.4961 48.5422 10.4961C53.3314 10.4961 55.726 13.2404 55.726 18.7291V32.0553H51.0617V19.4795C51.0617 17.6758 50.8073 16.3342 50.2988 15.4547C49.7903 14.5752 48.7812 14.1351 47.2714 14.1339C45.2839 14.1339 43.7776 14.8461 42.7525 16.2708C41.7275 17.6954 41.2143 19.5754 41.2131 21.9109V32.0536L36.5215 32.0553Z" fill="#142636"/>
<path fill-rule="evenodd" clip-rule="evenodd" d="M117.227 10.4961C119.85 10.4961 121.907 11.1405 123.4 12.4294C124.893 13.7183 125.805 15.4317 126.137 17.5697H121.883C121.345 15.0829 119.796 13.8394 117.236 13.8394C115.248 13.8394 113.709 14.5634 112.617 16.0117C111.526 17.4599 110.983 19.2978 110.987 21.5255C110.987 23.7242 111.531 25.5323 112.617 26.9503C113.704 28.3682 115.29 29.0771 117.374 29.0771C120.21 29.0771 121.806 27.5986 122.163 24.6417H126.417C126.202 26.8414 125.385 28.6872 123.966 30.1792C122.548 31.6711 120.35 32.4175 117.374 32.4187C113.785 32.4187 111.011 31.3531 109.053 29.2218C107.095 27.0904 106.116 24.5105 106.116 21.4818C106.116 18.4644 107.095 15.8799 109.053 13.7284C111.011 11.5768 113.735 10.4995 117.227 10.4961Z" fill="#142636"/>
<path fill-rule="evenodd" clip-rule="evenodd" d="M155.15 32.0552V11.1456H159.843V32.0552H155.15ZM155.15 7.65753V3.38708H159.843V7.65416L155.15 7.65753Z" fill="#142636"/>
<path fill-rule="evenodd" clip-rule="evenodd" d="M163.679 11.1456H168.603L173.966 27.4383L179.294 11.1456H184.218L176.856 32.1916H171.077L163.679 11.1456Z" fill="#142636"/>
<path fill-rule="evenodd" clip-rule="evenodd" d="M185.569 21.2984C185.569 18.281 186.49 15.7268 188.332 13.6358C190.173 11.5449 192.882 10.4983 196.458 10.4961C203.022 10.4961 206.336 14.4076 206.399 22.2306H190.447C190.478 24.3081 191.014 25.9681 192.054 27.2111C193.093 28.454 194.608 29.0759 196.596 29.0771C197.952 29.0771 199.089 28.7658 200.007 28.1432C200.925 27.5207 201.506 26.6188 201.752 25.4376H206.098C205.79 27.3322 204.83 28.9694 203.219 30.3491C201.608 31.7288 199.384 32.4187 196.548 32.4187C192.989 32.4187 190.268 31.3351 188.388 29.1679C186.508 27.0007 185.568 24.3776 185.569 21.2984ZM190.632 19.2524H201.659C201.444 15.6437 199.676 13.8394 196.357 13.8394C193.075 13.8394 191.167 15.6437 190.632 19.2524Z" fill="#142636"/>
<path d="M3.56313 28.1432C2.64754 28.7657 1.51115 29.077 0.154279 29.077C0.102111 29.077 0.0516544 29.0748 0 29.0738V32.4165C0.0357476 32.4166 0.0702979 32.4185 0.106388 32.4185C2.94225 32.4185 5.16578 31.7286 6.77699 30.3489C8.38819 28.9692 9.34773 27.332 9.65561 25.4374H5.30945C5.06076 26.6187 4.47871 27.5206 3.56313 28.1432Z" fill="#142636"/>
<path d="M5.21709 19.2524H0V22.2306H9.95493C9.89336 14.4076 6.58029 10.4961 0.0157358 10.4961C0.0104335 10.4961 0.00530227 10.4964 0 10.4964V13.8408C3.26363 13.8687 5.00329 15.6719 5.21709 19.2524Z" fill="#142636"/>
</svg>
