<?xml version="1.0" encoding="UTF-8"?>
<svg viewBox="0 0 640 480" xmlns="http://www.w3.org/2000/svg">
 <g fill="#007f7f">
  <path d="m323.82 340.82c4.3842 5.3447 10.964 6.8023 14.693 3.2513 3.7237-3.5671 3.1826-10.792-1.2048-16.142-4.3958-5.3608-10.974-6.811-14.694-3.2541-3.7205 3.5613-3.1894 10.784 1.2064 16.145z"/>
  <path d="m392.59 404.69s-51.694 16.291-65.263-29.23c0 0-0.93756-1.5221 0.26212-2.3138 1.5002-0.98724 3.7736 0.17462 3.7736 0.17462 11.885 44.363 60.079 27.614 60.079 27.614s2.3016 0.47906 2.6584 1.2577c0.35687 0.77707-0.031494 2.3331-1.51 2.4976z"/>
  <path d="m329.56 251c3.0217-5.6079 24.417-44.397 63.572-35.451 86.511 19.768 71.208-80.91 3.0118-65.357-53.428 12.187-69.505 97.514-70.811 105.18 0 0-0.14941 1.0314 0.31692 1.2488 1.8404 0.8476 3.9096-5.6225 3.9096-5.6225z"/>
 </g>
 <path d="m326.12 268.32c-96.281-6.8418-98.223 89.816-155.61 89.816-49.159 0-43.719-46.764-41.152-60.161 5.6918-0.37607 13.267-2.2066 22.576-7.3707 24.878-13.804 9.8239-40.677 9.8239-40.677-0.48628 9.407-14.59 10.264-14.59 10.264-26.363 1.0872-29.347 19.362-30.231 29.082-3.4599-7.2429-11.739-20.496-25.479-19.375-18.564 1.5133-14.737 8.0775-34.64-1.0107 0 0-3.0749 26.229 27.739 32.892 8.0084 1.7321 14.316 1.6603 19.221 0.72873-1.8453 140.16 150.17 172.16 243.74 136.89 107.78-40.624 74.881-164.23-21.4-171.08z" fill="#666"/>
 <path d="m327.99 252.39c3.0217-5.6078 24.417-44.396 63.572-35.451 86.511 19.768 71.207-80.91 3.0118-65.357-53.428 12.187-69.505 97.514-70.811 105.18 0 0-0.14941 1.0314 0.31696 1.2488 1.8403 0.84766 3.9096-5.6225 3.9096-5.6225z" fill="#007f7f"/>
 <path d="m325.04 202.5c3.7685-14.047-15.539-128.97 59.137-111.76 37.774 8.7077 27.93 60.794-10.64 61.974-36.22 1.1062-39.171 35.97-44.894 49.462 0 0-0.7319 2.2332-2.1672 2.1156 0 0-1.8868-0.11903-1.4354-1.7953z" fill="#666"/>
 <g fill="#007f7f">
  <path d="m321.37 256.82s12.011-230.8-124.34-181.44c0 0-63 25.845-23.527 83.434 15.466 22.56 51.021 22.524 77.427 18.334 0 0 22.586-4.3488 37.754 11.668 15.17 16.017 26.587 64.111 28.652 67.672 2.3232 4.0196 4.0308 0.33063 4.0308 0.33063v-6.1e-5z"/>
  <path d="m322.94 255.43s12.011-230.8-124.34-181.44c0 0-63 25.845-23.527 83.434 15.466 22.56 51.021 22.524 77.427 18.334 0 0 22.586-4.3488 37.754 11.668 15.17 16.017 26.587 64.111 28.652 67.672 2.3232 4.0196 4.0307 0.33054 4.0307 0.33054z"/>
 </g>
</svg>
